<?xml version="1.0" encoding="UTF-8"?>
<svg version="1.1" xmlns="http://www.w3.org/2000/svg" width="400" height="400">
<path d="M0 0 C30.36 0 60.72 0 92 0 C92 5.94 92 11.88 92 18 C97.94 18 103.88 18 110 18 C110 42.42 110 66.84 110 92 C104.06 92 98.12 92 92 92 C92 97.28 92 102.56 92 108 C97.61 108 103.22 108 109 108 C109 107.34 109 106.68 109 106 C139.36 106 169.72 106 201 106 C201 111.94 201 117.88 201 124 C206.94 124 212.88 124 219 124 C219 148.42 219 172.84 219 198 C213.06 198 207.12 198 201 198 C201 203.61 201 209.22 201 215 C206.94 215 212.88 215 219 215 C220.20029908 217.40059817 220.11459743 218.89360649 220.09765625 221.5703125 C220.09515869 222.37742676 220.09266113 223.18454102 220.09008789 224.01611328 C220.08098389 225.0420459 220.07187988 226.06797852 220.0625 227.125 C220.041875 230.38375 220.02125 233.6425 220 237 C213.4 237 206.8 237 200 237 C200 230.07 200 223.14 200 216 C194.39 216 188.78 216 183 216 C183 221.94 183 227.88 183 234 C158.58 234 134.16 234 109 234 C109 228.06 109 222.12 109 216 C103.06 216 97.12 216 91 216 C91 181.02 91 146.04 91 110 C85.39 110 79.78 110 74 110 C74 115.94 74 121.88 74 128 C49.58 128 25.16 128 0 128 C0 122.06 0 116.12 0 110 C-5.94 110 -11.88 110 -18 110 C-18 79.64 -18 49.28 -18 18 C-12.06 18 -6.12 18 0 18 C0 12.06 0 6.12 0 0 Z M20 19 C20 48.7 20 78.4 20 109 C31.55 109 43.1 109 55 109 C55 103.39 55 97.78 55 92 C49.06 92 43.12 92 37 92 C37 85.73 37 79.46 37 73 C48.88 73 60.76 73 73 73 C73 55.18 73 37.36 73 19 C55.51 19 38.02 19 20 19 Z M129 125 C129 154.7 129 184.4 129 215 C140.55 215 152.1 215 164 215 C164 209.39 164 203.78 164 198 C158.06 198 152.12 198 146 198 C146 191.73 146 185.46 146 179 C157.88 179 169.76 179 182 179 C182 161.18 182 143.36 182 125 C164.51 125 147.02 125 129 125 Z " fill="#111111" transform="translate(140,123)"/>
<path d="M0 0 C6.6 0 13.2 0 20 0 C20 6.6 20 13.2 20 20 C13.4 20 6.8 20 0 20 C0 13.4 0 6.8 0 0 Z " fill="#F1CD06" transform="translate(340,340)"/>
<path d="M0 0 C5.94 0 11.88 0 18 0 C18 6.27 18 12.54 18 19 C12.06 19 6.12 19 0 19 C-1.51714839 15.96570323 -1.14363916 12.82398333 -1.125 9.5 C-1.12886719 8.81035156 -1.13273438 8.12070313 -1.13671875 7.41015625 C-1.12666646 2.25333293 -1.12666646 2.25333293 0 0 Z " fill="#F6D30D" transform="translate(232,231)"/>
<path d="M0 0 C5.94 0 11.88 0 18 0 C17.67 0.66 17.34 1.32 17 2 C11.72 1.67 6.44 1.34 1 1 C1.33 6.28 1.66 11.56 2 17 C7.28 17.33 12.56 17.66 18 18 C18 18.33 18 18.66 18 19 C11.73 19 5.46 19 -1 19 C-0.67 12.73 -0.34 6.46 0 0 Z " fill="#EFD123" transform="translate(341,341)"/>
<path d="M0 0 C0.66 0 1.32 0 2 0 C2 2.31 2 4.62 2 7 C0.68 6.67 -0.64 6.34 -2 6 C-1.34 4.02 -0.68 2.04 0 0 Z " fill="#201C08" transform="translate(230,226)"/>
</svg>
