<?xml version="1.0" encoding="UTF-8"?>
<svg version="1.1" xmlns="http://www.w3.org/2000/svg" width="500" height="500">
<path d="M0 0 C165 0 330 0 500 0 C500 165 500 330 500 500 C335 500 170 500 0 500 C0 335 0 170 0 0 Z " fill="#121211" transform="translate(0,0)"/>
<path d="M0 0 C30.03 0 60.06 0 91 0 C91 5.94 91 11.88 91 18 C96.94 18 102.88 18 109 18 C109 42.09 109 66.18 109 91 C103.06 91 97.12 91 91 91 C91 96.28 91 101.56 91 107 C93.52317871 106.83701416 96.04635742 106.67402832 98.64599609 106.50610352 C109.32035313 105.88103119 119.97496567 105.87266735 130.6640625 105.90234375 C132.67857833 105.90421468 134.69309463 105.90563538 136.70761108 105.90663147 C141.9451224 105.91040362 147.18260487 105.92018692 152.42010498 105.93133545 C157.79048269 105.94166526 163.16086517 105.94615358 168.53125 105.95117188 C179.02084789 105.96181535 189.510417 105.97936746 200 106 C200 111.94 200 117.88 200 124 C205.94 124 211.88 124 218 124 C218 148.09 218 172.18 218 197 C212.06 197 206.12 197 200 197 C200 202.94 200 208.88 200 215 C205.94 215 211.88 215 218 215 C218 221.6 218 228.2 218 235 C211.73 235 205.46 235 199 235 C199 228.4 199 221.8 199 215 C193.39 215 187.78 215 182 215 C182 220.94 182 226.88 182 233 C157.91 233 133.82 233 109 233 C109 227.06 109 221.12 109 215 C103.06 215 97.12 215 91 215 C91 180.02 91 145.04 91 109 C85.06 109 79.12 109 73 109 C73 114.94 73 120.88 73 127 C48.91 127 24.82 127 0 127 C0 121.06 0 115.12 0 109 C-5.94 109 -11.88 109 -18 109 C-18 78.97 -18 48.94 -18 18 C-12.06 18 -6.12 18 0 18 C0 12.06 0 6.12 0 0 Z " fill="#FBD400" transform="translate(141,124)"/>
<path d="M0 0 C17.82 0 35.64 0 54 0 C54 17.82 54 35.64 54 54 C42.12 54 30.24 54 18 54 C18 60.27 18 66.54 18 73 C24.27 73 30.54 73 37 73 C37 78.94 37 84.88 37 91 C24.79 91 12.58 91 0 91 C0 60.97 0 30.94 0 0 Z " fill="#131311" transform="translate(268,248)"/>
<path d="M0 0 C17.82 0 35.64 0 54 0 C54 17.82 54 35.64 54 54 C42.12 54 30.24 54 18 54 C18 60.27 18 66.54 18 73 C24.27 73 30.54 73 37 73 C37 78.94 37 84.88 37 91 C24.79 91 12.58 91 0 91 C0 60.97 0 30.94 0 0 Z " fill="#131311" transform="translate(159,142)"/>
<path d="M0 0 C5.94 0 11.88 0 18 0 C18 6.6 18 13.2 18 20 C12.06 20 6.12 20 0 20 C0 13.4 0 6.8 0 0 Z " fill="#FEFBEC" transform="translate(341,339)"/>
<path d="M0 0 C5.94 0 11.88 0 18 0 C18 5.94 18 11.88 18 18 C12.06 18 6.12 18 0 18 C0 12.06 0 6.12 0 0 Z " fill="#FFFFFF" transform="translate(232,232)"/>
</svg>
