<?xml version="1.0" encoding="UTF-8"?>
<svg version="1.1" xmlns="http://www.w3.org/2000/svg" width="500" height="500">
<path d="M0 0 C42.9 0 85.8 0 130 0 C130 8.58 130 17.16 130 26 C138.25 26 146.5 26 155 26 C155 60.32 155 94.64 155 130 C151.53730776 130.86567306 149.47668555 131.0688425 146.015625 130.87890625 C145.17290039 130.83580322 144.33017578 130.7927002 143.46191406 130.74829102 C142.40198242 130.68697998 141.34205078 130.62566895 140.25 130.5625 C136.8675 130.376875 133.485 130.19125 130 130 C130 138.25 130 146.5 130 155 C138.25 155 146.5 155 155 155 C155 154.01 155 153.02 155 152 C197.57 152 240.14 152 284 152 C284 160.58 284 169.16 284 178 C292.58 178 301.16 178 310 178 C310.80227036 198.15704285 311.1102032 218.26525454 311.125 238.4375 C311.12874634 240.21678391 311.12874634 240.21678391 311.13256836 242.03201294 C311.15563647 255.39110163 311.02553209 268.67625902 310 282 C307.09125996 282.96958001 305.21010209 283.12880274 302.18359375 283.1328125 C301.25482422 283.13410156 300.32605469 283.13539063 299.36914062 283.13671875 C297.91797852 283.13091797 297.91797852 283.13091797 296.4375 283.125 C294.98053711 283.13080078 294.98053711 283.13080078 293.49414062 283.13671875 C292.56666016 283.13542969 291.63917969 283.13414062 290.68359375 283.1328125 C289.40826782 283.13112061 289.40826782 283.13112061 288.10717773 283.12939453 C286 283 286 283 284 282 C284 290.25 284 298.5 284 307 C292.58 307 301.16 307 310 307 C310.86587003 316.5245703 310.75316916 324.20880096 310 334 C301.09 334 292.18 334 283 334 C283 325.42 283 316.84 283 308 C275.08 308 267.16 308 259 308 C259 316.58 259 325.16 259 334 C224.68 334 190.36 334 155 334 C155 325.42 155 316.84 155 308 C146.42 308 137.84 308 129 308 C129 257.84 129 207.68 129 156 C120.75 156 112.5 156 104 156 C104 164.58 104 173.16 104 182 C69.68 182 35.36 182 0 182 C-0.94539288 172.54607123 -1.32087778 165.24614446 0 156 C-8.58 156 -17.16 156 -26 156 C-26 113.1 -26 70.2 -26 26 C-17.42 26 -8.84 26 0 26 C-0.36756745 18.93958799 -0.36756745 18.93958799 -0.74829102 11.87988281 C-0.79139404 10.99655273 -0.83449707 10.11322266 -0.87890625 9.203125 C-0.9260376 8.30239258 -0.97316895 7.40166016 -1.02172852 6.47363281 C-1 4 -1 4 0 0 Z M27 27 C27 69.24 27 111.48 27 155 C43.5 155 60 155 77 155 C77 146.75 77 138.5 77 130 C68.75 130 60.5 130 52 130 C52 121.42 52 112.84 52 104 C77.245 103.505 77.245 103.505 103 103 C103 77.92 103 52.84 103 27 C77.92 27 52.84 27 27 27 Z M181 179 C181 221.24 181 263.48 181 307 C197.83 307 214.66 307 232 307 C232 298.75 232 290.5 232 282 C223.75 282 215.5 282 207 282 C206.67 273.09 206.34 264.18 206 255 C223.16 255 240.32 255 258 255 C258 229.92 258 204.84 258 179 C232.59 179 207.18 179 181 179 Z " fill="#FDD603" transform="translate(95,69)"/>
<path d="M0 0 C0.33 0 0.66 0 1 0 C1 49.5 1 99 1 150 C5.62 149.67 10.24 149.34 15 149 C18.96 149.33 22.92 149.66 27 150 C27 158.25 27 166.5 27 175 C60.66 175 94.32 175 129 175 C129 166.42 129 157.84 129 149 C140.875 149.1875 140.875 149.1875 144.61669922 149.27026367 C145.58623535 149.27775635 146.55577148 149.28524902 147.5546875 149.29296875 C148.54968262 149.3086792 149.54467773 149.32438965 150.56982422 149.34057617 C151.77276123 149.17199097 151.77276123 149.17199097 153 149 C153.66 148.01 154.32 147.02 155 146 C155 147.32 155 148.64 155 150 C163.58 150 172.16 150 181 150 C181.86587003 159.5245703 181.75316916 167.20880096 181 177 C172.09 177 163.18 177 154 177 C154 168.42 154 159.84 154 151 C146.08 151 138.16 151 130 151 C130 159.58 130 168.16 130 177 C95.68 177 61.36 177 26 177 C26 168.42 26 159.84 26 151 C17.42 151 8.84 151 0 151 C0 101.17 0 51.34 0 0 Z " fill="#F9D61F" transform="translate(224,226)"/>
<path d="M0 0 C8.25 0 16.5 0 25 0 C25 7.92 25 15.84 25 24 C16.75 24 8.5 24 0 24 C0 16.08 0 8.16 0 0 Z " fill="#FDD601" transform="translate(379,377)"/>
<path d="M0 0 C0.33 1.32 0.66 2.64 1 4 C9.58 4 18.16 4 27 4 C27.86587003 13.5245703 27.75316916 21.20880096 27 31 C18.09 31 9.18 31 0 31 C0 22.42 0 13.84 0 5 C-7.92 5 -15.84 5 -24 5 C-24 13.58 -24 22.16 -24 31 C-58.32 31 -92.64 31 -128 31 C-128 30.67 -128 30.34 -128 30 C-94.01 30 -60.02 30 -25 30 C-25 21.09 -25 12.18 -25 3 C-17.08 3 -9.16 3 -1 3 C-0.67 2.01 -0.34 1.02 0 0 Z M1 5 C1 12.92 1 20.84 1 29 C9.25 29 17.5 29 26 29 C26 21.08 26 13.16 26 5 C17.75 5 9.5 5 1 5 Z " fill="#F1D338" transform="translate(378,372)"/>
<path d="M0 0 C0.99 0.495 0.99 0.495 2 1 C2 1.66 2 2.32 2 3 C2.99 2.67 3.98 2.34 5 2 C7.14337765 1.87983672 9.29079124 1.82468336 11.4375 1.8125 C12.57058594 1.79832031 13.70367187 1.78414063 14.87109375 1.76953125 C17.85457979 1.98928865 19.49295423 2.44156614 22 4 C19.22276075 4.78688445 16.77389923 5.11949924 13.890625 5.09765625 C13.13652344 5.09443359 12.38242187 5.09121094 11.60546875 5.08789062 C10.82816406 5.07951172 10.05085938 5.07113281 9.25 5.0625 C8.45722656 5.05798828 7.66445313 5.05347656 6.84765625 5.04882812 C4.89840492 5.03708565 2.94919262 5.01915146 1 5 C0.67 3.35 0.34 1.7 0 0 Z " fill="#FDE309" transform="translate(301,347)"/>
<path d="M0 0 C0.66 0 1.32 0 2 0 C2.33 0.99 2.66 1.98 3 3 C4.32 3 5.64 3 7 3 C7 3.99 7 4.98 7 6 C-4.385 5.505 -4.385 5.505 -16 5 C-16 4.67 -16 4.34 -16 4 C-10.72 4 -5.44 4 0 4 C0 2.68 0 1.36 0 0 Z " fill="#FCDC11" transform="translate(242,194)"/>
<path d="M0 0 C0.99 0.495 0.99 0.495 2 1 C2 1.66 2 2.32 2 3 C5.3 3 8.6 3 12 3 C12 3.33 12 3.66 12 4 C8.37 4.33 4.74 4.66 1 5 C0.67 3.35 0.34 1.7 0 0 Z " fill="#FBDD1E" transform="translate(301,347)"/>
</svg>
