<?xml version="1.0" encoding="UTF-8"?>
<svg version="1.1" xmlns="http://www.w3.org/2000/svg" width="500" height="500">
<path d="M0 0 C165 0 330 0 500 0 C500 165 500 330 500 500 C335 500 170 500 0 500 C0 335 0 170 0 0 Z " fill="#FEFEFE" transform="translate(0,0)"/>
<path d="M0 0 C30.03 0 60.06 0 91 0 C91 5.94 91 11.88 91 18 C96.94 18 102.88 18 109 18 C109 42.09 109 66.18 109 91 C103.06 91 97.12 91 91 91 C91 96.94 91 102.88 91 109 C85.06 109 79.12 109 73 109 C73 114.94 73 120.88 73 127 C48.91 127 24.82 127 0 127 C0 121.06 0 115.12 0 109 C-5.94 109 -11.88 109 -18 109 C-18 78.97 -18 48.94 -18 18 C-12.06 18 -6.12 18 0 18 C0 12.06 0 6.12 0 0 Z " fill="#141414" transform="translate(141,124)"/>
<path d="M0 0 C30.03 0 60.06 0 91 0 C91 5.94 91 11.88 91 18 C96.94 18 102.88 18 109 18 C109 42.09 109 66.18 109 91 C103.06 91 97.12 91 91 91 C91 96.94 91 102.88 91 109 C85.06 109 79.12 109 73 109 C73 114.94 73 120.88 73 127 C48.91 127 24.82 127 0 127 C0 121.06 0 115.12 0 109 C-5.94 109 -11.88 109 -18 109 C-18 79.63 -18 50.26 -18 20 C-12.06 20 -6.12 20 0 20 C0 13.4 0 6.8 0 0 Z " fill="#141414" transform="translate(250,230)"/>
<path d="M0 0 C17.82 0 35.64 0 54 0 C54 17.82 54 35.64 54 54 C42.12 54 30.24 54 18 54 C18 60.27 18 66.54 18 73 C24.27 73 30.54 73 37 73 C37 78.94 37 84.88 37 91 C24.79 91 12.58 91 0 91 C0 60.97 0 30.94 0 0 Z " fill="#FDFDFD" transform="translate(268,248)"/>
<path d="M0 0 C17.82 0 35.64 0 54 0 C54 17.82 54 35.64 54 54 C42.12 54 30.24 54 18 54 C18 60.27 18 66.54 18 73 C24.27 73 30.54 73 37 73 C37 78.94 37 84.88 37 91 C24.79 91 12.58 91 0 91 C0 60.97 0 30.94 0 0 Z " fill="#FDFDFD" transform="translate(159,142)"/>
<path d="M0 0 C5.94 0 11.88 0 18 0 C18 6.6 18 13.2 18 20 C12.06 20 6.12 20 0 20 C0 13.4 0 6.8 0 0 Z " fill="#EDC801" transform="translate(341,339)"/>
<path d="M0 0 C5.94 0 11.88 0 18 0 C18 6.27 18 12.54 18 19 C12.06 19 6.12 19 0 19 C0 12.73 0 6.46 0 0 Z " fill="#FED705" transform="translate(232,231)"/>
</svg>
