<svg id="svg" version="1.1" xmlns="http://www.w3.org/2000/svg" xmlns:xlink="http://www.w3.org/1999/xlink" width="400" height="400" viewBox="0, 0, 400,400"><g id="svgg"><path id="path0" d="M77.324 57.300 C 77.146 57.575,76.962 60.050,76.915 62.800 C 76.868 65.550,76.777 68.430,76.713 69.200 C 76.649 69.970,76.813 71.394,77.078 72.364 C 77.870 75.262,76.433 76.800,72.935 76.800 C 71.787 76.800,70.736 76.980,70.600 77.200 C 70.192 77.859,64.580 77.699,64.010 77.012 C 63.721 76.664,62.927 76.450,62.061 76.488 C 61.257 76.524,60.240 76.400,59.800 76.213 C 59.360 76.026,59.138 76.024,59.307 76.210 C 59.475 76.395,59.070 76.775,58.407 77.054 C 57.244 77.543,57.197 77.661,57.129 80.281 L 57.059 83.000 56.800 80.200 L 56.541 77.400 56.471 80.500 C 56.431 82.253,56.226 83.600,56.000 83.600 C 55.780 83.600,55.600 83.960,55.600 84.400 C 55.600 84.840,55.780 85.200,56.000 85.200 C 56.220 85.200,56.400 85.920,56.400 86.800 C 56.400 87.680,56.220 88.400,56.000 88.400 C 55.780 88.400,55.600 88.760,55.600 89.200 C 55.600 89.640,55.780 90.000,56.000 90.000 C 56.249 90.000,56.400 92.240,56.400 95.920 C 56.400 99.991,56.550 101.990,56.880 102.320 C 57.253 102.693,57.253 102.800,56.880 102.800 C 56.549 102.800,56.400 103.739,56.400 105.824 C 56.400 107.487,56.535 108.764,56.700 108.662 C 56.865 108.560,56.880 110.304,56.733 112.538 C 56.586 114.772,56.451 124.970,56.432 135.200 C 56.411 147.205,56.258 153.847,56.000 153.933 C 55.283 154.172,55.480 166.000,56.200 166.000 C 56.811 166.000,56.918 167.347,56.980 175.798 C 57.003 179.033,56.219 178.637,63.600 179.141 C 66.130 179.314,69.346 179.323,70.748 179.161 C 74.684 178.705,75.900 179.035,76.803 180.806 C 77.223 181.628,77.469 182.397,77.352 182.515 C 76.964 182.903,76.872 194.138,77.249 195.128 C 77.492 195.767,77.468 196.278,77.178 196.627 C 76.936 196.918,76.797 197.571,76.869 198.078 L 77.000 199.000 115.100 199.102 C 137.426 199.162,153.200 199.055,153.200 198.845 C 153.200 198.338,154.286 197.981,154.998 198.254 C 155.326 198.381,155.496 198.645,155.374 198.842 C 155.252 199.039,155.444 199.200,155.800 199.200 C 156.156 199.200,156.336 199.020,156.200 198.800 C 155.978 198.440,156.503 198.227,157.300 198.353 C 157.740 198.422,157.666 194.902,157.170 192.223 C 156.864 190.567,156.864 189.776,157.170 189.470 C 158.218 188.422,157.348 185.084,156.133 185.489 C 155.880 185.573,155.556 185.453,155.413 185.221 C 155.012 184.573,154.285 184.723,154.545 185.400 C 154.801 186.067,153.802 186.250,153.405 185.608 C 153.088 185.096,153.938 183.515,154.383 183.789 C 154.908 184.114,154.328 182.273,153.710 181.654 C 153.066 181.008,153.236 180.200,154.017 180.200 C 154.320 180.200,154.678 180.740,154.814 181.400 C 155.116 182.866,155.909 184.400,156.365 184.400 C 157.019 184.400,157.663 183.229,157.424 182.476 C 157.280 182.023,157.433 181.505,157.800 181.200 C 158.178 180.887,158.327 180.359,158.183 179.844 C 158.014 179.240,158.055 179.155,158.325 179.545 C 158.639 179.997,158.734 179.999,158.882 179.555 C 159.091 178.927,163.032 178.962,163.799 179.599 C 164.060 179.816,164.407 179.860,164.570 179.697 C 165.185 179.081,177.200 179.207,177.200 179.829 C 177.200 180.143,177.380 180.400,177.600 180.400 C 177.820 180.400,178.000 180.216,178.000 179.991 C 178.000 179.766,178.449 179.876,178.999 180.236 L 179.997 180.890 180.099 238.519 L 180.200 296.148 181.599 296.307 C 183.460 296.520,185.257 298.400,183.600 298.400 C 183.380 298.400,183.200 298.698,183.200 299.062 C 183.200 299.548,182.937 299.419,182.216 298.579 C 181.128 297.313,180.943 297.339,180.739 298.789 C 180.483 300.612,182.090 301.000,189.885 300.994 C 194.816 300.991,196.911 300.849,197.265 300.495 C 198.260 299.500,201.705 301.259,200.999 302.402 C 200.864 302.621,201.134 302.800,201.599 302.800 C 202.394 302.800,202.407 302.854,201.823 303.689 C 200.872 305.046,201.023 305.727,202.222 305.498 C 203.128 305.325,203.229 305.421,203.122 306.351 C 203.019 307.233,202.825 307.382,201.900 307.285 L 200.800 307.170 200.800 313.558 L 200.800 319.947 201.900 319.792 C 202.505 319.707,202.774 319.734,202.498 319.853 C 200.672 320.636,206.365 320.772,241.607 320.792 C 280.383 320.814,280.794 320.806,281.593 320.007 C 282.552 319.048,282.832 306.186,281.937 304.220 C 281.556 303.386,281.592 303.072,282.137 302.470 C 282.501 302.067,282.800 301.554,282.800 301.331 C 282.800 299.567,285.824 298.160,286.220 299.739 C 286.406 300.479,286.663 300.639,287.430 300.492 C 287.966 300.390,289.204 300.507,290.182 300.754 C 291.525 301.092,292.216 301.085,293.007 300.724 C 293.876 300.328,294.281 300.370,295.393 300.968 C 296.129 301.365,296.972 301.593,297.266 301.476 C 297.626 301.333,297.572 301.253,297.100 301.232 C 296.715 301.214,296.400 301.034,296.400 300.832 C 296.400 300.629,295.858 300.345,295.197 300.199 C 294.535 300.054,294.096 299.769,294.221 299.566 C 294.543 299.045,296.447 299.566,297.413 300.440 C 298.116 301.076,298.360 301.106,299.223 300.658 C 299.772 300.373,300.431 300.210,300.688 300.296 C 301.389 300.530,302.800 299.654,302.800 298.986 C 302.800 298.664,302.980 298.400,303.200 298.400 C 303.455 298.400,303.600 295.189,303.600 289.568 L 303.600 280.736 304.700 280.906 C 305.305 281.000,305.573 281.000,305.295 280.908 C 305.017 280.815,304.895 280.570,305.023 280.363 C 305.151 280.156,305.408 280.081,305.594 280.196 C 305.780 280.311,306.443 280.195,307.066 279.938 C 308.525 279.335,310.400 279.185,310.400 279.670 C 310.400 279.878,310.625 279.903,310.900 279.727 C 311.640 279.253,314.953 279.292,315.300 279.779 C 315.508 280.071,315.692 280.063,315.900 279.754 C 316.065 279.509,316.830 279.349,317.600 279.400 C 319.251 279.508,321.330 277.732,320.980 276.512 C 320.867 276.120,320.990 276.209,321.253 276.710 C 321.671 277.506,321.588 277.769,320.585 278.816 L 319.439 280.012 320.819 279.753 C 322.673 279.406,323.096 278.966,322.498 278.009 C 321.921 277.085,322.657 276.367,323.277 277.249 C 323.551 277.639,323.597 277.488,323.434 276.736 C 323.307 276.151,323.192 258.787,323.180 238.151 C 323.164 212.342,323.024 200.470,322.732 200.119 C 322.252 199.540,320.543 199.814,319.600 200.621 C 318.228 201.796,313.310 201.240,312.516 199.821 C 312.122 199.118,308.656 198.842,306.541 199.345 C 305.447 199.606,305.116 199.473,304.002 198.323 C 303.169 197.463,302.653 197.175,302.527 197.500 C 302.193 198.364,301.600 198.044,301.600 197.000 C 301.600 196.450,301.375 195.994,301.100 195.987 C 300.406 195.968,302.352 194.400,303.068 194.400 C 303.557 194.400,303.635 193.266,303.563 187.236 C 303.463 178.873,303.410 178.749,300.018 178.980 C 298.906 179.056,297.896 178.956,297.774 178.759 C 297.439 178.217,202.000 178.287,202.000 178.829 C 202.000 179.065,201.685 179.194,201.300 179.115 C 200.915 179.036,200.420 179.186,200.200 179.449 C 199.430 180.368,179.600 180.368,179.600 179.449 C 179.600 179.146,179.330 178.674,179.000 178.400 C 177.066 176.795,178.446 158.192,180.408 159.405 C 180.624 159.538,180.800 159.367,180.800 159.024 C 180.800 158.681,180.935 158.380,181.100 158.356 C 181.265 158.332,181.993 158.263,182.718 158.202 C 183.443 158.141,184.357 157.801,184.749 157.446 C 185.701 156.584,187.160 156.629,188.174 157.550 C 190.186 159.379,194.235 158.778,193.782 156.719 C 193.496 155.414,194.206 153.600,195.003 153.600 C 195.606 153.600,196.544 155.509,196.576 156.800 C 196.600 157.816,196.778 158.000,197.736 158.000 C 199.123 158.000,199.200 156.409,199.187 128.281 C 199.174 99.283,199.169 99.200,197.485 99.200 C 197.141 99.200,196.783 99.425,196.691 99.700 C 196.599 99.975,196.578 99.750,196.644 99.200 C 196.710 98.650,196.890 96.400,197.045 94.200 C 197.336 90.051,197.639 90.113,198.165 94.432 C 198.511 97.271,198.666 97.289,198.978 94.525 C 199.308 91.591,199.100 83.616,198.700 83.863 C 198.535 83.964,198.400 83.396,198.400 82.600 C 198.400 81.737,198.561 81.253,198.800 81.400 C 199.047 81.552,199.200 80.871,199.200 79.624 C 199.200 77.267,200.263 77.514,190.472 77.598 C 186.261 77.635,184.165 77.503,183.772 77.177 C 183.364 76.838,183.200 76.831,183.200 77.151 C 183.200 77.398,182.840 77.600,182.400 77.600 C 181.960 77.600,181.600 77.445,181.600 77.255 C 181.600 77.066,181.172 76.993,180.649 77.093 C 178.628 77.479,178.400 76.368,178.400 66.111 L 178.400 56.800 128.024 56.800 C 88.162 56.800,77.580 56.904,77.324 57.300 M158.594 77.592 C 159.281 78.582,159.617 79.491,159.485 79.997 C 159.343 80.541,159.528 80.948,160.044 81.224 C 160.988 81.729,161.600 81.405,161.600 80.400 C 161.600 78.748,162.330 79.324,162.489 81.101 C 162.710 83.589,162.526 84.096,161.586 83.593 C 159.262 82.349,159.408 80.716,159.315 109.016 L 159.230 134.831 160.315 135.258 C 162.356 136.062,162.600 136.289,162.667 137.444 C 162.704 138.080,162.860 139.095,163.014 139.700 C 163.257 140.657,163.176 140.800,162.394 140.800 C 161.592 140.800,161.520 140.651,161.720 139.415 C 161.968 137.889,159.854 136.073,159.352 137.381 C 159.238 137.678,158.797 138.012,158.372 138.123 C 157.919 138.242,157.600 138.672,157.600 139.163 C 157.600 139.623,157.401 140.000,157.157 140.000 C 156.914 140.000,156.823 140.282,156.955 140.628 C 157.137 141.101,156.975 141.224,156.298 141.128 C 155.610 141.030,155.371 140.695,155.275 139.700 L 155.149 138.400 139.965 138.400 L 124.780 138.400 124.383 139.443 C 124.043 140.339,123.897 140.412,123.354 139.962 C 122.804 139.506,122.732 139.566,122.805 140.418 C 122.851 140.958,122.838 144.010,122.777 147.200 L 122.665 153.000 122.414 146.339 C 122.142 139.113,121.923 138.400,119.975 138.400 C 118.689 138.400,118.173 139.000,118.341 140.300 C 118.405 140.795,118.302 141.200,118.113 141.200 C 117.705 141.200,117.418 156.395,117.803 157.610 C 118.167 158.758,120.400 156.518,120.400 155.004 C 120.400 154.452,120.580 154.000,120.800 154.000 C 121.196 154.000,121.327 154.680,121.375 157.000 L 121.400 158.200 125.000 158.137 C 129.092 158.065,129.600 157.999,129.600 157.533 C 129.600 157.350,129.960 157.200,130.400 157.200 C 130.840 157.200,131.200 157.366,131.200 157.569 C 131.200 158.106,133.894 158.911,134.492 158.553 C 134.771 158.386,135.230 157.930,135.511 157.541 C 136.369 156.352,138.293 157.505,137.603 158.794 C 137.248 159.458,139.200 160.694,139.910 160.256 C 140.428 159.935,141.332 160.662,141.028 161.155 C 140.876 161.400,140.328 161.600,139.808 161.600 C 139.079 161.600,138.802 161.880,138.593 162.831 C 138.315 164.096,138.758 167.398,139.085 166.500 C 139.185 166.225,139.522 166.000,139.833 166.000 C 140.145 166.000,140.414 165.775,140.432 165.500 C 140.457 165.104,140.505 165.104,140.664 165.496 C 140.917 166.122,139.868 167.200,139.006 167.200 C 138.445 167.200,138.371 167.695,138.470 170.800 L 138.584 174.400 139.649 174.400 C 140.235 174.400,140.818 174.670,140.945 175.000 C 141.071 175.330,140.980 175.600,140.741 175.600 C 140.499 175.600,140.402 175.966,140.522 176.425 C 140.704 177.119,140.576 177.230,139.706 177.125 C 138.839 177.020,138.599 177.224,138.203 178.400 L 137.731 179.800 131.365 180.075 C 117.244 180.685,95.140 180.026,96.732 179.042 C 97.388 178.637,97.315 177.393,96.600 176.800 C 95.825 176.157,95.833 175.036,96.618 174.385 C 96.958 174.103,97.127 173.586,96.992 173.236 C 96.858 172.886,96.759 152.131,96.771 127.113 C 96.788 93.394,96.674 81.361,96.330 80.606 C 95.938 79.746,95.979 79.504,96.591 79.056 C 97.089 78.692,97.254 78.196,97.117 77.476 C 96.831 75.983,95.086 76.066,127.646 76.032 L 157.491 76.000 158.594 77.592 M95.911 82.326 C 96.006 82.616,95.705 82.952,95.242 83.073 C 94.691 83.217,94.400 83.614,94.400 84.223 C 94.400 84.734,94.220 85.264,94.000 85.400 C 93.543 85.682,93.432 82.301,93.884 81.850 C 94.323 81.411,95.717 81.738,95.911 82.326 M193.170 101.276 C 193.204 102.938,192.730 103.479,192.005 102.606 C 191.662 102.193,191.607 101.280,191.817 99.510 L 192.115 97.000 192.627 98.400 C 192.909 99.170,193.153 100.464,193.170 101.276 M166.308 133.525 C 166.395 133.786,166.182 134.000,165.833 134.000 C 165.485 134.000,165.200 133.715,165.200 133.367 C 165.200 132.660,166.061 132.783,166.308 133.525 M135.986 153.974 C 136.577 155.078,136.519 155.200,135.400 155.200 C 134.697 155.200,134.400 154.982,134.400 154.467 C 134.400 153.061,135.341 152.768,135.986 153.974 M180.961 153.746 C 182.258 154.419,181.430 155.454,179.966 154.989 C 179.344 154.792,179.239 154.623,179.598 154.401 C 179.876 154.230,179.979 153.889,179.828 153.645 C 179.469 153.065,179.685 153.084,180.961 153.746 M131.200 153.976 C 131.200 154.183,131.028 154.459,130.817 154.589 C 130.607 154.719,130.536 155.090,130.660 155.413 C 130.784 155.736,130.686 156.000,130.443 156.000 C 130.199 156.000,130.000 155.460,130.000 154.800 C 130.000 154.000,130.200 153.600,130.600 153.600 C 130.930 153.600,131.200 153.769,131.200 153.976 M126.638 154.462 C 126.819 154.754,126.748 154.815,126.444 154.627 C 126.181 154.464,125.705 154.547,125.388 154.810 C 125.068 155.076,124.495 155.161,124.105 155.002 C 123.454 154.736,123.462 154.689,124.200 154.385 C 125.367 153.905,126.313 153.935,126.638 154.462 M94.909 173.043 C 95.226 173.360,94.291 174.371,93.900 174.134 C 93.390 173.826,93.570 172.800,94.133 172.800 C 94.427 172.800,94.776 172.909,94.909 173.043 M91.127 177.097 C 90.960 178.537,89.600 178.893,89.600 177.496 C 89.600 176.398,89.891 176.000,90.693 176.000 C 91.068 176.000,91.211 176.363,91.127 177.097 M200.254 189.199 C 200.220 194.763,200.053 197.997,199.800 197.996 C 199.422 197.994,199.127 181.409,199.492 180.700 C 200.118 179.488,200.301 181.535,200.254 189.199 M154.652 191.700 C 154.519 192.195,154.408 192.735,154.405 192.900 C 154.402 193.065,154.232 193.200,154.027 193.200 C 153.821 193.200,153.669 192.660,153.688 192.000 C 153.710 191.228,153.931 190.800,154.308 190.800 C 154.720 190.800,154.822 191.067,154.652 191.700 M297.527 193.384 C 297.714 195.613,296.964 196.090,296.189 194.236 C 295.695 193.053,295.663 192.606,296.040 192.152 C 296.797 191.239,297.389 191.730,297.527 193.384 M222.000 194.125 C 225.658 195.120,225.590 195.503,221.761 195.467 C 218.339 195.434,217.620 195.197,217.606 194.100 C 217.598 193.465,219.615 193.476,222.000 194.125 M281.188 193.984 C 282.543 194.841,280.048 194.943,256.297 195.003 C 229.956 195.069,230.713 195.093,231.060 194.187 C 231.326 193.494,280.100 193.296,281.188 193.984 M302.198 196.003 C 302.061 196.224,302.238 196.517,302.592 196.652 C 303.358 196.946,303.785 196.622,303.416 196.027 C 303.084 195.489,302.522 195.478,302.198 196.003 M252.800 197.218 C 267.430 197.194,279.985 197.293,280.700 197.437 L 282.000 197.700 282.000 201.437 C 282.000 204.592,282.093 205.139,282.599 204.945 C 283.315 204.670,283.421 220.992,282.739 226.600 C 282.525 228.360,282.302 231.060,282.243 232.600 L 282.135 235.400 282.285 232.687 C 282.674 225.662,283.169 231.563,283.159 243.114 C 283.152 250.602,283.006 255.472,282.802 255.000 C 282.523 254.355,282.451 254.330,282.428 254.871 C 282.413 255.240,283.065 256.090,283.878 256.760 C 284.690 257.430,285.227 258.106,285.071 258.262 C 284.915 258.419,284.574 258.334,284.313 258.073 C 283.611 257.371,283.200 257.497,283.200 258.417 C 283.200 260.217,283.335 260.206,262.835 260.089 L 243.372 259.978 243.306 260.853 C 243.270 261.334,243.095 261.834,242.918 261.964 C 242.132 262.540,241.495 265.286,242.056 265.680 C 242.479 265.976,242.488 266.106,242.100 266.264 C 241.825 266.375,241.600 266.822,241.600 267.257 C 241.600 267.692,241.445 267.951,241.255 267.834 C 241.065 267.717,240.930 269.056,240.955 270.810 C 240.980 272.564,240.865 274.000,240.700 274.000 C 240.535 274.000,240.400 274.242,240.400 274.538 C 240.400 276.249,244.206 277.188,251.200 277.203 C 254.273 277.210,255.239 277.326,254.800 277.637 C 254.348 277.956,254.324 278.111,254.700 278.264 C 254.975 278.375,255.200 278.632,255.200 278.833 C 255.200 279.333,249.710 279.301,249.400 278.800 C 249.108 278.327,243.737 278.254,243.450 278.719 C 242.840 279.706,244.158 279.924,251.400 280.034 C 259.193 280.152,260.145 280.241,259.791 280.815 C 259.678 280.998,260.131 281.131,260.798 281.112 C 262.501 281.064,262.439 280.788,262.439 288.453 C 262.440 300.386,262.408 301.602,262.100 301.534 C 261.637 301.433,259.452 302.070,258.969 302.447 C 258.732 302.632,257.923 302.607,257.172 302.392 C 254.790 301.709,227.107 301.883,226.176 302.587 C 225.410 303.167,225.411 303.175,226.200 303.214 C 226.892 303.249,226.865 303.311,226.000 303.675 C 225.450 303.906,224.640 304.252,224.200 304.442 C 222.691 305.096,218.627 305.541,218.100 305.110 C 216.716 303.980,218.237 303.200,221.826 303.200 C 222.776 303.200,223.664 303.020,223.800 302.800 C 223.938 302.577,223.634 302.400,223.113 302.400 C 221.209 302.400,219.024 299.758,219.482 298.009 C 219.690 297.212,219.369 297.029,218.000 297.165 C 217.670 297.197,217.895 296.907,218.500 296.519 L 219.600 295.815 219.600 249.320 C 219.600 209.650,219.518 202.857,219.040 203.040 C 218.733 203.158,218.367 203.071,218.228 202.846 C 217.777 202.115,218.446 200.481,219.287 200.261 C 219.896 200.102,220.048 199.826,219.880 199.184 C 219.756 198.709,219.743 198.410,219.851 198.518 C 219.960 198.626,220.501 198.263,221.054 197.710 C 221.962 196.801,222.258 196.732,224.129 196.983 C 225.268 197.136,238.170 197.242,252.800 197.218 M298.948 200.500 C 299.373 202.088,299.230 203.200,298.600 203.200 C 298.156 203.200,298.000 202.733,298.000 201.400 C 298.000 199.498,298.542 198.984,298.948 200.500 M303.913 203.370 C 304.261 204.132,304.231 204.442,303.778 204.819 C 302.943 205.511,302.061 204.661,302.303 203.397 C 302.545 202.129,303.342 202.115,303.913 203.370 M306.998 204.403 C 306.641 204.981,305.600 204.889,305.600 204.280 C 305.600 203.335,306.520 202.715,306.904 203.401 C 307.091 203.734,307.133 204.185,306.998 204.403 M282.144 212.800 C 282.144 214.890,282.212 215.745,282.294 214.700 C 282.376 213.655,282.376 211.945,282.294 210.900 C 282.212 209.855,282.144 210.710,282.144 212.800 M282.548 247.200 C 282.548 249.510,282.614 250.455,282.695 249.300 C 282.776 248.145,282.776 246.255,282.695 245.100 C 282.614 243.945,282.548 244.890,282.548 247.200 M286.480 256.480 C 286.107 256.853,285.893 256.853,285.520 256.480 C 285.147 256.107,285.253 256.000,286.000 256.000 C 286.747 256.000,286.853 256.107,286.480 256.480 M287.604 258.995 C 287.333 259.322,287.210 259.850,287.333 260.169 C 287.475 260.539,287.057 261.041,286.177 261.560 C 285.118 262.185,284.800 262.244,284.800 261.813 C 284.800 261.506,285.175 261.135,285.634 260.989 C 286.260 260.790,286.411 260.500,286.241 259.822 C 285.974 258.759,286.245 258.400,287.316 258.400 C 287.963 258.400,288.013 258.503,287.604 258.995 M284.707 260.000 C 284.258 260.719,283.200 261.128,283.200 260.583 C 283.200 260.151,284.212 259.230,284.703 259.215 C 285.107 259.203,285.107 259.359,284.707 260.000 M241.487 272.300 C 241.395 272.905,241.320 272.410,241.320 271.200 C 241.320 269.990,241.395 269.495,241.487 270.100 C 241.578 270.705,241.578 271.695,241.487 272.300 M248.300 279.487 C 247.695 279.578,246.705 279.578,246.100 279.487 C 245.495 279.395,245.990 279.320,247.200 279.320 C 248.410 279.320,248.905 279.395,248.300 279.487 M266.480 289.500 C 266.661 296.584,266.581 298.000,265.999 298.000 C 265.492 298.000,265.393 296.145,265.527 289.100 C 265.694 280.293,266.251 280.527,266.480 289.500 M299.393 294.392 C 299.980 295.041,300.019 295.295,299.606 295.792 C 298.569 297.043,297.290 296.007,297.818 294.344 C 298.120 293.393,298.500 293.405,299.393 294.392 M288.578 294.764 C 289.230 295.820,287.520 297.164,286.549 296.358 C 285.526 295.508,285.881 294.400,287.176 294.400 C 287.823 294.400,288.454 294.564,288.578 294.764 M194.500 296.279 C 195.242 296.695,194.667 297.212,193.200 297.446 C 192.320 297.587,191.600 297.859,191.600 298.051 C 191.600 298.534,190.104 298.491,189.800 298.000 C 189.664 297.780,189.013 297.600,188.353 297.600 C 187.655 297.600,187.256 297.433,187.400 297.200 C 187.536 296.980,188.222 296.794,188.924 296.786 C 189.626 296.778,190.650 296.519,191.200 296.210 C 192.073 295.720,193.559 295.751,194.500 296.279 M282.800 296.800 C 282.800 297.020,282.530 297.200,282.200 297.200 C 281.870 297.200,281.600 297.020,281.600 296.800 C 281.600 296.580,281.870 296.400,282.200 296.400 C 282.530 296.400,282.800 296.580,282.800 296.800 M295.230 296.910 C 295.181 297.388,294.632 297.296,294.460 296.780 C 294.372 296.516,294.516 296.372,294.780 296.460 C 295.044 296.548,295.247 296.750,295.230 296.910 M203.433 298.000 C 205.026 298.000,205.341 298.978,203.866 299.348 C 202.957 299.576,200.920 299.169,199.940 298.563 C 199.345 298.195,200.714 297.564,201.533 297.828 C 201.826 297.923,202.681 298.000,203.433 298.000 M294.308 298.475 C 294.061 299.217,293.200 299.340,293.200 298.633 C 293.200 298.285,293.485 298.000,293.833 298.000 C 294.182 298.000,294.395 298.214,294.308 298.475 M302.800 301.567 C 302.800 302.433,303.333 303.201,303.943 303.213 C 304.513 303.224,304.502 303.300,303.856 303.789 C 303.105 304.358,302.525 320.615,303.272 320.155 C 303.422 320.062,303.658 320.170,303.796 320.393 C 304.121 320.919,306.400 320.925,306.400 320.400 C 306.400 320.180,306.591 320.000,306.824 320.000 C 307.057 320.000,307.136 320.180,307.000 320.400 C 306.838 320.661,309.466 320.800,314.586 320.800 L 322.420 320.800 322.824 319.736 C 323.560 317.802,323.243 302.903,322.459 302.595 C 319.863 301.574,306.891 301.537,306.324 302.549 C 305.825 303.442,304.800 303.370,304.800 302.443 C 304.800 302.026,304.515 301.576,304.167 301.443 C 303.271 301.099,302.800 301.142,302.800 301.567 M267.125 302.505 C 267.217 302.985,267.002 303.200,266.429 303.200 C 265.857 303.200,265.600 302.943,265.600 302.371 C 265.600 301.346,266.924 301.462,267.125 302.505 M264.365 306.465 C 263.762 307.592,262.881 307.798,262.015 307.014 C 261.350 306.412,260.990 306.387,258.983 306.804 C 257.128 307.189,256.605 307.177,256.168 306.738 C 255.718 306.287,256.099 306.195,258.515 306.168 C 260.318 306.149,261.850 305.899,262.600 305.504 C 264.080 304.723,265.023 305.236,264.365 306.465 M316.200 306.398 C 313.385 306.594,309.600 306.598,306.476 306.408 C 306.408 306.403,306.436 306.265,306.537 306.100 C 306.639 305.935,309.665 305.878,313.261 305.973 C 319.389 306.136,319.574 306.163,316.200 306.398 " stroke="none" fill="#fcd404" fill-rule="evenodd"></path><path id="path1" d="M76.900 56.124 C 76.185 56.339,75.600 56.670,75.600 56.858 C 75.600 57.370,76.570 57.270,77.140 56.700 C 78.121 55.719,177.971 55.998,178.498 56.983 C 178.759 57.470,178.889 60.854,178.842 65.927 C 178.752 75.746,179.364 78.413,181.200 76.200 C 181.621 75.693,181.536 75.600,180.649 75.600 L 179.600 75.600 179.600 66.400 C 179.600 57.725,179.554 57.154,178.798 56.398 C 177.895 55.495,79.862 55.232,76.900 56.124 M75.600 61.000 C 75.600 61.550,75.780 62.000,76.000 62.000 C 76.220 62.000,76.400 61.550,76.400 61.000 C 76.400 60.450,76.220 60.000,76.000 60.000 C 75.780 60.000,75.600 60.450,75.600 61.000 M56.083 76.416 C 55.803 76.864,55.400 77.123,55.187 76.992 C 54.947 76.844,54.830 78.018,54.878 80.076 L 54.957 83.400 55.097 80.698 C 55.224 78.245,55.345 77.916,56.418 77.123 C 57.667 76.200,57.934 75.600,57.096 75.600 C 56.819 75.600,56.363 75.967,56.083 76.416 M63.600 75.891 C 63.600 77.421,70.011 77.874,70.800 76.400 C 71.041 75.949,71.066 75.600,70.857 75.600 C 70.653 75.600,70.388 75.854,70.269 76.165 C 69.952 76.992,65.042 76.985,64.214 76.156 C 63.876 75.819,63.600 75.700,63.600 75.891 M183.450 76.185 C 183.817 77.142,184.877 77.261,191.981 77.140 C 195.708 77.076,198.880 77.147,199.030 77.297 C 199.241 77.508,199.645 87.876,199.516 89.800 C 199.502 90.020,199.433 105.140,199.364 123.400 C 199.294 141.660,199.137 157.275,199.014 158.100 C 198.881 158.992,198.955 159.600,199.195 159.600 C 199.418 159.600,199.600 159.049,199.600 158.376 C 199.600 157.663,199.767 157.256,200.000 157.400 C 200.248 157.553,200.400 156.804,200.400 155.424 C 200.400 154.201,200.220 153.200,200.000 153.200 C 199.738 153.200,199.600 144.459,199.600 127.776 C 199.600 110.929,199.735 102.436,200.000 102.600 C 200.220 102.736,200.400 102.487,200.400 102.047 C 200.400 101.607,200.220 101.136,200.000 101.000 C 199.494 100.687,199.469 94.800,199.974 94.800 C 200.195 94.800,200.359 91.196,200.375 86.043 L 200.401 77.287 199.300 76.982 C 198.695 76.814,195.095 76.719,191.300 76.771 C 185.323 76.852,184.367 76.780,184.157 76.232 C 184.024 75.884,183.759 75.600,183.570 75.600 C 183.380 75.600,183.326 75.863,183.450 76.185 M98.098 76.266 C 96.151 77.051,100.840 77.200,127.400 77.200 C 154.052 77.200,159.750 77.010,155.944 76.249 C 154.471 75.954,98.830 75.971,98.098 76.266 M158.273 78.261 C 158.123 78.411,158.000 91.813,158.000 108.044 C 158.000 137.468,157.998 137.554,157.189 137.398 C 156.743 137.312,156.484 137.412,156.613 137.621 C 156.948 138.163,158.231 138.089,158.700 137.500 C 159.653 136.302,159.228 77.306,158.273 78.261 M54.982 99.600 C 54.982 108.070,55.035 111.535,55.099 107.300 C 55.164 103.065,55.164 96.135,55.099 91.900 C 55.035 87.665,54.982 91.130,54.982 99.600 M54.961 134.400 C 54.961 137.810,55.022 139.205,55.097 137.500 C 55.172 135.795,55.172 133.005,55.097 131.300 C 55.022 129.595,54.961 130.990,54.961 134.400 M126.300 137.497 C 127.895 137.573,130.505 137.573,132.100 137.497 C 133.695 137.421,132.390 137.359,129.200 137.359 C 126.010 137.359,124.705 137.421,126.300 137.497 M117.350 138.587 C 116.943 139.648,117.389 139.996,117.862 138.987 C 118.121 138.435,118.159 138.000,117.950 138.000 C 117.744 138.000,117.474 138.264,117.350 138.587 M117.365 148.000 C 117.365 151.850,117.425 153.425,117.498 151.500 C 117.571 149.575,117.571 146.425,117.498 144.500 C 117.425 142.575,117.365 144.150,117.365 148.000 M117.200 158.400 C 117.200 159.060,117.349 159.600,117.531 159.600 C 117.713 159.600,117.782 159.060,117.685 158.400 C 117.588 157.740,117.440 157.200,117.355 157.200 C 117.270 157.200,117.200 157.740,117.200 158.400 M127.100 158.687 C 123.442 158.930,124.420 159.600,128.433 159.600 C 131.161 159.600,132.026 159.475,131.903 159.100 C 131.722 158.552,130.594 158.454,127.100 158.687 M193.875 158.658 C 193.353 159.180,193.602 159.600,194.433 159.600 C 194.899 159.600,195.197 159.390,195.108 159.125 C 194.913 158.540,194.246 158.288,193.875 158.658 M122.000 159.200 C 122.000 159.420,122.270 159.600,122.600 159.600 C 122.930 159.600,123.200 159.420,123.200 159.200 C 123.200 158.980,122.930 158.800,122.600 158.800 C 122.270 158.800,122.000 158.980,122.000 159.200 M181.600 159.200 C 181.600 159.706,182.417 159.706,183.200 159.200 C 183.668 158.898,183.557 158.811,182.700 158.806 C 182.095 158.803,181.600 158.980,181.600 159.200 M190.139 159.254 C 190.668 159.561,191.002 159.558,191.319 159.241 C 191.640 158.920,191.441 158.803,190.580 158.812 C 189.546 158.823,189.491 158.877,190.139 159.254 M137.200 159.967 C 137.200 160.205,137.380 160.400,137.600 160.400 C 137.837 160.400,138.000 161.867,138.000 164.000 C 138.000 166.133,137.837 167.600,137.600 167.600 C 137.380 167.600,137.200 168.590,137.200 169.800 C 137.200 171.010,137.380 172.000,137.600 172.000 C 137.829 172.000,138.000 173.200,138.000 174.800 C 138.000 176.400,137.829 177.600,137.600 177.600 C 137.380 177.600,137.200 177.870,137.200 178.200 C 137.200 178.725,134.736 178.800,117.428 178.800 L 97.656 178.800 97.482 177.900 C 97.310 177.008,97.308 177.007,97.254 177.871 C 97.120 180.026,96.876 180.001,117.529 179.994 C 128.018 179.991,136.780 179.856,137.001 179.694 C 138.162 178.842,138.350 177.214,138.276 168.633 C 138.219 162.031,138.077 159.826,137.700 159.700 C 137.425 159.608,137.200 159.728,137.200 159.967 M179.280 160.080 C 178.937 160.423,178.800 162.978,178.800 169.039 L 178.800 177.518 179.889 178.759 L 180.978 180.000 189.039 180.000 C 197.127 180.000,199.600 179.801,199.600 179.150 C 199.600 178.958,195.325 178.797,190.100 178.794 C 184.875 178.791,180.384 178.650,180.119 178.482 C 179.596 178.150,179.280 160.842,179.782 160.029 C 180.135 159.458,179.876 159.484,179.280 160.080 M54.860 177.100 C 54.817 178.323,55.024 179.024,55.600 179.600 C 56.444 180.444,57.600 180.675,57.600 180.000 C 57.600 179.780,57.960 179.600,58.400 179.600 C 58.840 179.600,59.200 179.780,59.200 180.000 C 59.200 180.220,59.605 180.394,60.100 180.387 C 60.990 180.375,60.991 180.368,60.200 179.759 C 59.658 179.342,58.931 179.217,57.944 179.370 C 56.306 179.624,55.417 178.748,55.093 176.564 C 54.960 175.668,54.906 175.792,54.860 177.100 M202.350 177.710 C 202.709 178.069,296.849 178.110,297.784 177.751 C 298.129 177.619,298.640 177.701,298.921 177.934 C 299.514 178.427,303.600 178.425,303.600 177.932 C 303.600 177.749,302.475 177.598,301.100 177.595 C 299.725 177.593,276.874 177.548,250.320 177.495 C 223.766 177.443,202.179 177.539,202.350 177.710 M61.800 180.000 C 61.653 180.239,62.137 180.400,63.000 180.400 C 63.863 180.400,64.347 180.239,64.200 180.000 C 64.064 179.780,63.524 179.600,63.000 179.600 C 62.476 179.600,61.936 179.780,61.800 180.000 M65.913 180.062 C 65.626 180.244,66.810 180.377,68.600 180.362 C 72.152 180.334,72.198 180.146,68.713 179.899 C 67.456 179.809,66.196 179.883,65.913 180.062 M73.600 180.042 C 73.600 180.239,74.050 180.400,74.600 180.400 C 75.903 180.400,75.903 179.818,74.600 179.742 C 74.050 179.711,73.600 179.846,73.600 180.042 M160.000 180.000 C 160.000 180.220,160.371 180.400,160.824 180.400 C 161.277 180.400,161.536 180.220,161.400 180.000 C 161.264 179.780,160.893 179.600,160.576 179.600 C 160.259 179.600,160.000 179.780,160.000 180.000 M165.000 180.000 C 164.855 180.234,165.270 180.400,166.000 180.400 C 166.730 180.400,167.145 180.234,167.000 180.000 C 166.864 179.780,166.414 179.600,166.000 179.600 C 165.586 179.600,165.136 179.780,165.000 180.000 M173.800 180.031 C 173.231 180.253,173.549 180.352,174.900 180.372 C 175.945 180.387,176.800 180.232,176.800 180.027 C 176.800 179.584,174.935 179.586,173.800 180.031 M158.390 180.819 C 158.111 181.341,157.954 184.789,157.957 190.345 L 157.963 199.053 156.552 199.563 C 155.775 199.844,155.224 200.157,155.327 200.260 C 155.430 200.363,156.163 200.176,156.957 199.844 L 158.400 199.241 158.400 190.208 C 158.400 182.548,158.491 181.140,159.000 180.945 C 159.665 180.690,159.821 180.000,159.214 180.000 C 159.002 180.000,158.631 180.368,158.390 180.819 M178.800 240.567 C 178.800 273.255,178.950 300.000,179.132 300.000 C 179.315 300.000,179.706 300.450,180.000 301.000 C 180.444 301.830,180.829 302.000,182.268 302.000 C 184.542 302.000,184.494 301.323,182.196 300.979 C 179.801 300.619,180.027 306.619,179.905 240.233 C 179.819 193.771,179.692 181.431,179.298 181.299 C 178.902 181.167,178.800 193.318,178.800 240.567 M221.975 197.687 C 220.961 198.063,220.977 198.800,222.000 198.800 C 222.440 198.800,222.800 198.620,222.800 198.400 C 222.800 198.180,223.329 198.000,223.976 198.000 C 224.623 198.000,225.264 198.180,225.400 198.400 C 225.748 198.964,281.600 198.951,281.600 198.387 C 281.600 198.161,281.375 197.892,281.100 197.791 C 280.258 197.481,222.804 197.380,221.975 197.687 M305.049 197.521 C 304.608 198.234,305.677 198.577,308.400 198.598 C 309.830 198.609,313.664 198.659,316.921 198.709 L 322.842 198.800 323.260 200.000 C 323.791 201.523,324.400 201.548,324.400 200.047 C 324.400 198.532,323.880 198.414,317.200 198.400 C 311.865 198.389,309.848 198.169,310.179 197.635 C 310.272 197.484,309.751 197.320,309.021 197.271 C 308.138 197.211,307.614 197.386,307.459 197.791 C 307.151 198.593,306.134 198.569,305.675 197.749 C 305.445 197.337,305.215 197.253,305.049 197.521 M75.600 199.182 C 75.600 199.963,79.049 200.025,116.600 199.912 L 155.000 199.796 116.124 199.698 C 90.744 199.634,77.161 199.461,77.000 199.200 C 76.685 198.690,75.600 198.676,75.600 199.182 M220.202 200.084 C 219.698 202.169,220.185 300.128,220.700 300.300 C 221.098 300.433,221.200 290.207,221.200 250.057 C 221.200 203.191,221.066 196.506,220.202 200.084 M323.600 204.400 C 323.600 204.840,323.780 205.200,324.000 205.200 C 324.220 205.200,324.400 204.840,324.400 204.400 C 324.400 203.960,324.220 203.600,324.000 203.600 C 323.780 203.600,323.600 203.960,323.600 204.400 M323.600 249.200 C 323.600 261.200,323.739 267.600,324.000 267.600 C 324.261 267.600,324.400 261.200,324.400 249.200 C 324.400 237.200,324.261 230.800,324.000 230.800 C 323.739 230.800,323.600 237.200,323.600 249.200 M281.427 258.759 C 280.944 258.948,280.818 259.164,281.090 259.332 C 281.616 259.657,282.800 259.259,282.800 258.757 C 282.800 258.341,282.493 258.341,281.427 258.759 M241.819 260.100 C 241.733 260.375,241.550 261.275,241.413 262.100 C 241.276 262.925,240.992 263.600,240.782 263.600 C 240.572 263.600,240.400 263.960,240.400 264.400 C 240.400 264.840,240.572 265.200,240.781 265.200 C 241.197 265.200,241.994 262.696,241.998 261.380 C 241.999 260.929,242.216 260.344,242.480 260.080 C 242.853 259.707,242.851 259.600,242.467 259.600 C 242.197 259.600,241.905 259.825,241.819 260.100 M259.100 259.898 C 260.915 259.972,263.885 259.972,265.700 259.898 C 267.515 259.823,266.030 259.763,262.400 259.763 C 258.770 259.763,257.285 259.823,259.100 259.898 M323.600 272.400 C 323.600 273.280,323.780 274.000,324.000 274.000 C 324.220 274.000,324.400 273.280,324.400 272.400 C 324.400 271.520,324.220 270.800,324.000 270.800 C 323.780 270.800,323.600 271.520,323.600 272.400 M240.400 276.927 C 240.400 277.463,240.670 278.126,241.000 278.400 C 241.330 278.674,241.603 279.191,241.606 279.549 C 241.616 280.618,242.213 281.246,242.950 280.964 C 243.586 280.720,243.582 280.663,242.892 280.179 C 242.482 279.892,241.902 278.916,241.603 278.009 C 240.960 276.062,240.400 275.558,240.400 276.927 M323.467 278.267 C 323.320 278.413,323.200 278.868,323.200 279.277 C 323.200 279.782,322.817 280.097,322.006 280.259 C 320.367 280.587,320.899 281.200,322.824 281.200 C 324.396 281.200,324.400 281.196,324.400 279.600 C 324.400 278.099,324.085 277.648,323.467 278.267 M261.378 284.114 C 261.002 285.094,261.619 285.866,262.097 285.013 C 262.352 284.556,262.338 284.178,262.055 283.895 C 261.750 283.590,261.554 283.654,261.378 284.114 M221.417 300.772 C 221.291 300.977,221.368 301.257,221.590 301.394 C 222.419 301.906,260.545 301.612,260.872 301.090 C 261.060 300.789,260.931 300.546,260.537 300.461 C 260.185 300.384,259.742 300.564,259.554 300.861 C 259.301 301.260,259.211 301.270,259.206 300.900 C 259.198 300.259,225.395 300.161,225.000 300.800 C 224.864 301.020,224.313 301.200,223.776 301.200 C 223.239 301.200,222.800 301.020,222.800 300.800 C 222.800 300.295,221.725 300.274,221.417 300.772 M304.000 300.800 C 304.000 301.020,304.270 301.200,304.600 301.200 C 304.930 301.200,305.200 301.020,305.200 300.800 C 305.200 300.580,304.930 300.400,304.600 300.400 C 304.270 300.400,304.000 300.580,304.000 300.800 M306.000 300.757 C 306.000 301.471,307.409 301.600,315.225 301.600 L 323.185 301.600 323.422 302.546 C 323.553 303.067,323.625 303.742,323.582 304.046 C 323.443 305.043,323.593 305.600,324.000 305.600 C 325.012 305.600,324.435 301.696,323.384 301.432 C 322.825 301.291,322.475 301.002,322.607 300.788 C 322.759 300.542,319.768 300.400,314.424 300.400 C 309.747 300.400,306.000 300.559,306.000 300.757 M196.793 301.408 C 196.310 301.990,196.416 302.044,197.827 301.928 C 199.522 301.790,199.829 301.077,198.278 300.880 C 197.758 300.814,197.089 301.051,196.793 301.408 M286.923 301.426 C 286.284 301.911,286.475 301.976,288.567 301.987 C 291.196 302.001,291.296 301.874,289.123 301.281 C 287.993 300.972,287.477 301.006,286.923 301.426 M300.000 301.326 L 298.600 301.780 300.300 301.913 C 301.732 302.025,302.004 302.184,302.028 302.923 C 302.055 303.757,302.071 303.761,302.366 303.006 C 303.120 301.075,302.385 300.553,300.000 301.326 M192.200 301.600 C 192.050 301.842,192.604 302.000,193.600 302.000 C 194.596 302.000,195.150 301.842,195.000 301.600 C 194.864 301.380,194.234 301.200,193.600 301.200 C 192.966 301.200,192.336 301.380,192.200 301.600 M283.263 301.939 C 282.601 302.448,282.379 302.944,282.508 303.630 C 282.680 304.542,282.694 304.534,282.746 303.490 C 282.789 302.595,283.032 302.334,284.000 302.140 C 284.660 302.008,285.200 301.743,285.200 301.550 C 285.200 300.979,284.267 301.166,283.263 301.939 M293.700 301.876 C 294.085 301.976,294.715 301.976,295.100 301.876 C 295.485 301.775,295.170 301.693,294.400 301.693 C 293.630 301.693,293.315 301.775,293.700 301.876 M199.600 305.176 C 199.600 306.069,199.780 306.800,200.000 306.800 C 200.220 306.800,200.400 306.181,200.400 305.424 C 200.400 304.667,200.220 303.936,200.000 303.800 C 199.758 303.651,199.600 304.196,199.600 305.176 M282.553 312.200 C 282.553 314.840,282.618 315.868,282.697 314.484 C 282.775 313.101,282.774 310.941,282.695 309.684 C 282.616 308.428,282.552 309.560,282.553 312.200 M323.273 320.200 C 323.022 320.750,322.498 321.204,322.109 321.209 C 321.719 321.214,317.215 321.253,312.100 321.294 C 306.985 321.336,302.800 321.477,302.800 321.607 C 302.800 322.078,322.958 321.725,323.116 321.251 C 323.199 321.003,323.522 320.800,323.833 320.800 C 324.145 320.800,324.400 320.440,324.400 320.000 C 324.400 318.895,323.820 318.998,323.273 320.200 M282.446 320.057 C 282.421 320.419,282.107 320.827,281.750 320.964 C 280.189 321.563,201.293 321.194,200.788 320.586 C 200.175 319.847,199.600 319.832,199.600 320.553 C 199.600 321.569,201.201 321.608,241.789 321.595 C 282.115 321.582,283.046 321.549,282.684 320.142 C 282.532 319.552,282.483 319.534,282.446 320.057 " stroke="none" fill="#f8d620" fill-rule="evenodd"></path><path id="path2" d="M76.541 57.077 C 74.954 57.387,74.463 64.514,76.000 64.916 C 76.952 65.165,77.021 65.722,76.200 66.543 C 75.351 67.392,75.387 70.400,76.247 70.400 C 76.727 70.400,76.842 70.133,76.695 69.364 C 76.586 68.794,76.681 67.840,76.906 67.244 C 77.454 65.793,76.942 62.400,76.175 62.400 C 75.252 62.400,75.409 59.743,76.347 59.498 C 76.816 59.375,77.162 58.837,77.278 58.051 C 77.379 57.363,77.448 56.825,77.431 56.854 C 77.414 56.884,77.013 56.985,76.541 57.077 M76.076 71.946 C 75.727 72.166,75.593 72.954,75.675 74.305 C 75.802 76.396,76.274 76.530,77.229 74.747 C 77.756 73.762,76.816 71.479,76.076 71.946 M57.489 76.405 C 56.955 77.028,56.818 77.861,56.878 80.105 L 56.957 83.000 57.097 80.273 C 57.229 77.725,57.311 77.514,58.354 77.073 C 58.967 76.813,59.394 76.375,59.301 76.100 C 59.053 75.361,58.270 75.492,57.489 76.405 M71.200 76.200 C 71.200 76.603,71.603 76.800,72.429 76.800 C 73.521 76.800,73.590 76.733,73.057 76.200 C 72.727 75.870,72.174 75.600,71.829 75.600 C 71.483 75.600,71.200 75.870,71.200 76.200 M182.014 76.374 C 181.439 77.449,181.486 77.600,182.400 77.600 C 182.844 77.600,183.200 77.333,183.200 77.000 C 183.200 76.670,183.009 76.400,182.776 76.400 C 182.543 76.400,182.464 76.220,182.600 76.000 C 182.736 75.780,182.753 75.600,182.638 75.600 C 182.522 75.600,182.242 75.948,182.014 76.374 M55.867 77.867 C 55.435 78.299,55.558 83.600,56.000 83.600 C 56.231 83.600,56.400 82.333,56.400 80.600 C 56.400 77.588,56.359 77.375,55.867 77.867 M161.900 79.430 C 161.735 79.597,161.600 80.053,161.600 80.443 C 161.600 81.420,160.972 81.720,160.008 81.204 C 159.280 80.815,159.200 80.892,159.200 81.986 C 159.200 82.946,159.373 83.200,160.026 83.200 C 160.481 83.200,161.183 83.377,161.586 83.593 C 162.106 83.871,162.372 83.841,162.499 83.493 C 162.775 82.730,162.238 79.088,161.900 79.430 M198.400 82.643 C 198.400 83.463,198.520 84.014,198.666 83.867 C 199.099 83.435,199.175 81.632,198.772 81.383 C 198.567 81.256,198.400 81.823,198.400 82.643 M93.884 81.850 C 93.432 82.301,93.543 85.682,94.000 85.400 C 94.220 85.264,94.400 84.734,94.400 84.223 C 94.400 83.614,94.691 83.217,95.242 83.073 C 95.705 82.952,96.006 82.616,95.911 82.326 C 95.717 81.738,94.323 81.411,93.884 81.850 M55.600 86.800 C 55.600 87.680,55.780 88.400,56.000 88.400 C 56.220 88.400,56.400 87.680,56.400 86.800 C 56.400 85.920,56.220 85.200,56.000 85.200 C 55.780 85.200,55.600 85.920,55.600 86.800 M55.600 122.000 C 55.600 143.067,55.737 154.000,56.000 154.000 C 56.368 154.000,56.434 149.191,56.439 122.400 C 56.439 119.210,56.566 114.772,56.720 112.538 C 56.874 110.304,56.865 108.560,56.700 108.662 C 56.535 108.764,56.400 107.487,56.400 105.824 C 56.400 103.739,56.549 102.800,56.880 102.800 C 57.253 102.800,57.253 102.693,56.880 102.320 C 56.550 101.990,56.400 99.991,56.400 95.920 C 56.400 92.240,56.249 90.000,56.000 90.000 C 55.737 90.000,55.600 100.933,55.600 122.000 M159.364 97.000 C 159.363 100.740,159.423 102.324,159.497 100.520 C 159.571 98.715,159.572 95.655,159.498 93.720 C 159.425 91.784,159.364 93.260,159.364 97.000 M197.045 94.200 C 196.890 96.400,196.710 98.650,196.644 99.200 C 196.578 99.750,196.599 99.975,196.691 99.700 C 196.934 98.975,198.271 99.087,198.567 99.857 C 199.070 101.170,199.194 100.078,198.781 97.965 C 198.548 96.774,198.256 95.013,198.131 94.050 C 197.622 90.120,197.329 90.160,197.045 94.200 M191.817 99.510 C 191.523 101.991,191.974 103.510,192.845 102.972 C 193.353 102.658,193.228 100.043,192.627 98.400 L 192.115 97.000 191.817 99.510 M54.965 121.600 C 54.965 125.450,55.025 127.025,55.098 125.100 C 55.171 123.175,55.171 120.025,55.098 118.100 C 55.025 116.175,54.965 117.750,54.965 121.600 M165.200 133.367 C 165.200 133.715,165.485 134.000,165.833 134.000 C 166.540 134.000,166.417 133.139,165.675 132.892 C 165.414 132.805,165.200 133.018,165.200 133.367 M159.200 136.047 C 159.200 136.681,159.335 137.171,159.500 137.135 C 160.792 136.857,161.946 138.022,161.725 139.382 C 161.519 140.654,161.588 140.800,162.394 140.800 C 163.176 140.800,163.257 140.657,163.014 139.700 C 162.860 139.095,162.704 138.120,162.667 137.533 C 162.538 135.484,159.200 134.053,159.200 136.047 M121.200 138.277 C 121.200 138.477,121.416 138.856,121.681 139.121 C 121.994 139.434,122.249 141.930,122.413 146.301 L 122.665 153.000 122.753 147.400 C 122.801 144.320,122.906 141.035,122.987 140.100 C 123.068 139.165,122.984 138.400,122.800 138.400 C 122.616 138.400,122.181 138.291,121.833 138.157 C 121.485 138.024,121.200 138.078,121.200 138.277 M155.275 139.700 C 155.373 140.717,155.606 141.029,156.344 141.134 C 156.997 141.226,157.197 141.119,156.993 140.789 C 156.831 140.526,156.927 140.169,157.207 139.996 C 158.024 139.491,157.327 138.400,156.187 138.400 C 155.257 138.400,155.162 138.535,155.275 139.700 M117.600 140.400 C 117.600 140.840,117.780 141.200,118.000 141.200 C 118.220 141.200,118.400 140.840,118.400 140.400 C 118.400 139.960,118.220 139.600,118.000 139.600 C 117.780 139.600,117.600 139.960,117.600 140.400 M54.963 146.800 C 54.963 150.430,55.023 151.915,55.098 150.100 C 55.172 148.285,55.172 145.315,55.098 143.500 C 55.023 141.685,54.963 143.170,54.963 146.800 M134.667 153.467 C 133.986 154.147,134.431 155.200,135.400 155.200 C 136.519 155.200,136.577 155.078,135.986 153.974 C 135.557 153.172,135.126 153.007,134.667 153.467 M179.828 153.645 C 179.979 153.889,179.876 154.230,179.598 154.401 C 179.239 154.623,179.344 154.792,179.966 154.989 C 181.430 155.454,182.258 154.419,180.961 153.746 C 179.685 153.084,179.469 153.065,179.828 153.645 M130.000 154.800 C 130.000 155.460,130.199 156.000,130.443 156.000 C 130.686 156.000,130.784 155.736,130.660 155.413 C 130.536 155.090,130.607 154.719,130.817 154.589 C 131.407 154.225,131.270 153.600,130.600 153.600 C 130.200 153.600,130.000 154.000,130.000 154.800 M194.096 154.395 C 193.386 155.533,193.423 157.045,194.147 156.444 C 194.587 156.078,194.791 156.339,195.196 157.786 C 195.705 159.604,197.297 160.506,198.879 159.872 C 199.165 159.757,198.901 159.649,198.290 159.632 C 197.081 159.597,196.181 158.080,196.545 156.689 C 197.019 154.876,194.985 152.971,194.096 154.395 M120.400 155.018 C 120.400 155.578,119.950 156.486,119.400 157.036 C 118.850 157.586,118.400 158.388,118.400 158.818 C 118.400 159.248,118.190 159.600,117.933 159.600 C 117.677 159.600,117.552 159.685,117.656 159.789 C 119.050 161.183,121.851 157.755,121.353 155.264 C 121.050 153.750,120.400 153.583,120.400 155.018 M124.200 154.385 C 123.462 154.689,123.454 154.736,124.105 155.002 C 124.495 155.161,125.068 155.076,125.388 154.810 C 125.705 154.547,126.181 154.464,126.444 154.627 C 126.748 154.815,126.819 154.754,126.638 154.462 C 126.313 153.935,125.367 153.905,124.200 154.385 M135.235 157.846 L 134.405 158.800 135.703 158.806 C 136.642 158.811,136.841 158.913,136.422 159.178 C 136.104 159.379,135.235 159.465,134.490 159.370 C 133.745 159.275,132.835 159.386,132.468 159.617 C 131.971 159.930,132.456 160.000,134.354 159.890 C 136.216 159.781,137.048 159.549,137.426 159.032 C 138.620 157.399,136.583 156.296,135.235 157.846 M184.800 157.400 C 184.526 157.730,184.024 158.000,183.684 158.000 C 182.013 158.000,183.813 158.445,186.144 158.607 C 188.912 158.801,189.296 158.573,188.069 157.462 C 187.157 156.637,185.460 156.605,184.800 157.400 M139.500 160.303 C 139.115 160.389,138.800 160.727,138.800 161.056 C 138.800 161.764,140.850 161.668,141.086 160.949 C 141.263 160.410,140.471 160.087,139.500 160.303 M140.432 165.500 C 140.414 165.775,140.149 166.000,139.843 166.000 C 139.536 166.000,139.182 166.270,139.055 166.600 C 138.929 166.930,139.012 167.200,139.241 167.200 C 139.911 167.200,140.882 166.037,140.664 165.496 C 140.505 165.104,140.457 165.104,140.432 165.500 M55.643 172.057 C 55.595 178.177,55.804 179.200,57.098 179.200 C 57.574 179.200,57.599 179.081,57.222 178.626 C 56.934 178.279,56.792 177.058,56.862 175.526 C 57.104 170.215,56.832 166.000,56.245 166.000 C 55.799 166.000,55.681 167.182,55.643 172.057 M54.934 169.600 C 54.934 171.250,55.005 171.925,55.091 171.100 C 55.178 170.275,55.178 168.925,55.091 168.100 C 55.005 167.275,54.934 167.950,54.934 169.600 M93.600 173.376 C 93.600 173.693,93.735 174.035,93.900 174.134 C 94.291 174.371,95.226 173.360,94.909 173.043 C 94.451 172.584,93.600 172.801,93.600 173.376 M138.400 175.026 C 138.400 176.103,139.196 177.200,139.977 177.200 C 140.528 177.200,140.670 176.990,140.516 176.400 C 140.401 175.960,140.502 175.600,140.741 175.600 C 140.980 175.600,141.071 175.330,140.945 175.000 C 140.627 174.172,138.400 174.195,138.400 175.026 M89.867 176.267 C 89.720 176.413,89.600 176.967,89.600 177.496 C 89.600 178.893,90.960 178.537,91.127 177.097 C 91.248 176.047,90.547 175.586,89.867 176.267 M200.800 178.800 C 200.800 179.020,201.070 179.200,201.400 179.200 C 201.730 179.200,202.000 179.020,202.000 178.800 C 202.000 178.580,201.730 178.400,201.400 178.400 C 201.070 178.400,200.800 178.580,200.800 178.800 M297.800 178.800 C 297.936 179.020,298.307 179.200,298.624 179.200 C 298.941 179.200,299.200 179.020,299.200 178.800 C 299.200 178.580,298.829 178.400,298.376 178.400 C 297.923 178.400,297.664 178.580,297.800 178.800 M301.004 178.807 C 301.142 179.030,301.424 179.109,301.631 178.981 C 301.837 178.853,302.296 179.039,302.651 179.394 C 303.005 179.748,303.409 179.925,303.547 179.786 C 303.906 179.427,302.389 178.400,301.500 178.400 C 301.089 178.400,300.866 178.583,301.004 178.807 M72.121 179.117 C 71.809 179.315,71.770 179.627,72.008 180.011 C 72.317 180.508,72.514 180.460,73.276 179.700 C 74.224 178.754,73.371 178.322,72.121 179.117 M60.655 179.800 C 60.782 180.130,61.046 180.400,61.243 180.400 C 61.439 180.400,61.600 180.130,61.600 179.800 C 61.600 179.470,61.336 179.200,61.013 179.200 C 60.655 179.200,60.515 179.435,60.655 179.800 M161.845 179.774 C 162.133 180.523,164.148 180.647,163.902 179.900 C 163.812 179.625,163.258 179.343,162.672 179.274 C 161.841 179.175,161.658 179.286,161.845 179.774 M153.422 180.364 C 153.148 180.808,153.566 182.000,153.996 182.000 C 154.167 182.000,154.392 182.445,154.496 182.988 C 154.599 183.531,154.539 183.886,154.362 183.777 C 153.932 183.511,153.097 185.110,153.405 185.608 C 153.802 186.250,154.801 186.067,154.545 185.400 C 154.283 184.719,155.013 184.574,155.417 185.227 C 155.562 185.462,155.933 185.558,156.240 185.440 C 156.548 185.322,156.800 185.399,156.800 185.613 C 156.800 186.618,157.441 185.849,157.526 184.742 C 157.611 183.619,157.551 183.542,156.967 184.027 C 156.207 184.658,155.334 183.781,154.949 182.000 C 154.586 180.319,154.440 180.000,154.036 180.000 C 153.822 180.000,153.546 180.164,153.422 180.364 M189.700 180.276 C 190.085 180.376,190.715 180.376,191.100 180.276 C 191.485 180.175,191.170 180.093,190.400 180.093 C 189.630 180.093,189.315 180.175,189.700 180.276 M199.492 180.700 C 199.127 181.409,199.422 197.994,199.800 197.996 C 200.053 197.997,200.220 194.763,200.254 189.199 C 200.301 181.535,200.118 179.488,199.492 180.700 M76.806 181.500 C 76.803 181.775,76.530 182.000,76.200 182.000 C 75.800 182.000,75.600 182.400,75.600 183.200 C 75.600 183.860,75.780 184.400,76.000 184.400 C 76.220 184.400,76.535 184.409,76.700 184.420 C 77.165 184.452,77.527 182.127,77.149 181.531 C 76.896 181.132,76.811 181.124,76.806 181.500 M75.253 189.200 C 75.275 191.290,75.378 192.672,75.481 192.271 C 75.590 191.852,75.905 191.631,76.220 191.752 C 76.885 192.008,77.319 190.113,77.129 187.782 C 77.039 186.674,76.831 186.236,76.437 186.321 C 76.127 186.388,75.725 186.208,75.543 185.921 C 75.357 185.628,75.230 187.062,75.253 189.200 M157.059 191.400 C 157.193 192.500,157.369 193.475,157.451 193.567 C 157.764 193.917,157.526 190.961,157.180 190.200 C 156.935 189.661,156.895 190.054,157.059 191.400 M153.688 192.000 C 153.669 192.660,153.821 193.200,154.027 193.200 C 154.232 193.200,154.402 193.065,154.405 192.900 C 154.408 192.735,154.519 192.195,154.652 191.700 C 154.822 191.067,154.720 190.800,154.308 190.800 C 153.931 190.800,153.710 191.228,153.688 192.000 M296.040 192.152 C 295.663 192.606,295.695 193.053,296.189 194.236 C 296.964 196.090,297.714 195.613,297.527 193.384 C 297.389 191.730,296.797 191.239,296.040 192.152 M76.100 193.887 C 75.330 194.164,75.423 198.267,76.200 198.267 C 76.530 198.267,76.800 197.973,76.800 197.613 C 76.800 197.254,76.991 196.769,77.224 196.536 C 77.786 195.974,76.794 193.638,76.100 193.887 M217.606 194.100 C 217.620 195.197,218.339 195.434,221.761 195.467 C 224.546 195.493,225.156 195.404,224.561 195.057 C 222.471 193.841,217.595 193.170,217.606 194.100 M231.060 194.187 C 230.713 195.093,229.956 195.069,256.297 195.003 C 280.048 194.943,282.543 194.841,281.188 193.984 C 280.100 193.296,231.326 193.494,231.060 194.187 M301.544 195.187 C 301.025 195.619,300.825 195.979,301.100 195.987 C 301.375 195.994,301.600 196.450,301.600 197.000 C 301.600 197.550,301.780 198.000,302.000 198.000 C 302.220 198.000,302.400 197.820,302.400 197.600 C 302.400 196.844,303.572 197.201,304.046 198.100 C 304.598 199.148,305.166 199.585,305.989 199.594 C 306.346 199.598,306.188 199.333,305.589 198.924 C 305.045 198.552,304.450 198.002,304.268 197.702 C 304.085 197.401,303.489 196.986,302.944 196.779 C 302.394 196.570,302.070 196.211,302.216 195.973 C 302.362 195.738,302.733 195.642,303.040 195.760 C 303.403 195.899,303.600 195.698,303.600 195.187 C 303.600 194.182,302.751 194.182,301.544 195.187 M153.700 198.265 C 152.848 198.609,153.149 199.200,154.176 199.200 C 155.344 199.200,155.852 198.582,154.965 198.242 C 154.618 198.109,154.304 198.014,154.267 198.032 C 154.230 198.049,153.975 198.154,153.700 198.265 M156.438 198.376 C 156.040 198.622,156.029 198.771,156.392 198.995 C 156.655 199.157,157.050 199.110,157.270 198.890 C 157.791 198.369,157.121 197.955,156.438 198.376 M312.497 199.702 C 312.971 201.157,318.180 201.833,319.600 200.624 C 320.527 199.834,322.095 199.582,322.744 200.117 C 323.217 200.507,323.292 200.484,323.132 200.000 C 322.971 199.514,321.930 199.381,317.634 199.302 C 313.553 199.227,312.372 199.319,312.497 199.702 M298.000 201.400 C 298.000 202.733,298.156 203.200,298.600 203.200 C 299.230 203.200,299.373 202.088,298.948 200.500 C 298.542 198.984,298.000 199.498,298.000 201.400 M218.221 201.458 C 217.920 202.657,218.379 203.336,219.262 202.998 C 219.664 202.843,219.801 202.386,219.683 201.585 C 219.467 200.114,218.578 200.037,218.221 201.458 M322.949 201.788 C 322.828 202.103,322.846 202.550,322.988 202.781 C 323.422 203.483,324.400 203.248,324.400 202.443 C 324.400 201.511,323.254 200.993,322.949 201.788 M302.303 203.397 C 302.061 204.661,302.943 205.511,303.778 204.819 C 304.231 204.442,304.261 204.132,303.913 203.370 C 303.342 202.115,302.545 202.129,302.303 203.397 M306.083 203.277 C 305.422 203.938,305.475 204.800,306.176 204.800 C 306.966 204.800,307.313 204.132,306.904 203.401 C 306.640 202.928,306.459 202.901,306.083 203.277 M282.353 204.900 C 282.328 204.955,282.262 216.520,282.206 230.600 C 282.151 244.680,282.194 255.750,282.303 255.200 C 282.487 254.266,282.521 254.253,282.824 255.000 C 283.002 255.440,283.153 250.140,283.158 243.222 C 283.164 236.304,283.024 230.454,282.848 230.222 C 282.671 229.990,282.662 228.360,282.828 226.600 C 283.539 219.026,283.191 203.099,282.353 204.900 M324.540 220.000 C 324.540 221.870,324.609 222.635,324.693 221.700 C 324.777 220.765,324.777 219.235,324.693 218.300 C 324.609 217.365,324.540 218.130,324.540 220.000 M324.582 251.600 C 324.582 260.290,324.635 263.845,324.700 259.500 C 324.764 255.155,324.764 248.045,324.700 243.700 C 324.635 239.355,324.582 242.910,324.582 251.600 M282.695 249.300 C 282.614 250.455,282.548 249.510,282.548 247.200 C 282.548 244.890,282.614 243.945,282.695 245.100 C 282.776 246.255,282.776 248.145,282.695 249.300 M285.520 256.480 C 285.893 256.853,286.107 256.853,286.480 256.480 C 286.853 256.107,286.747 256.000,286.000 256.000 C 285.253 256.000,285.147 256.107,285.520 256.480 M284.075 257.625 C 284.171 257.914,284.486 258.229,284.775 258.325 C 285.075 258.425,285.225 258.275,285.125 257.975 C 285.029 257.686,284.714 257.371,284.425 257.275 C 284.125 257.175,283.975 257.325,284.075 257.625 M286.274 258.659 C 286.131 258.802,286.117 259.325,286.241 259.822 C 286.411 260.500,286.260 260.790,285.634 260.989 C 285.175 261.135,284.800 261.506,284.800 261.813 C 284.800 262.244,285.118 262.185,286.177 261.560 C 287.057 261.041,287.475 260.539,287.333 260.169 C 287.210 259.850,287.333 259.322,287.604 258.995 C 288.118 258.376,286.872 258.061,286.274 258.659 M283.700 259.798 C 283.066 260.518,283.067 260.800,283.704 260.800 C 283.981 260.800,284.432 260.440,284.707 260.000 C 285.314 259.028,284.518 258.869,283.700 259.798 M242.800 260.344 C 242.800 260.559,242.691 261.019,242.557 261.367 C 242.424 261.715,242.493 262.000,242.711 262.000 C 243.240 262.000,243.622 260.461,243.162 260.177 C 242.963 260.054,242.800 260.129,242.800 260.344 M241.160 266.313 L 241.120 267.400 240.800 266.400 C 240.551 265.623,240.483 265.846,240.494 267.400 C 240.502 268.500,240.587 268.992,240.683 268.494 C 240.779 267.996,241.024 267.691,241.229 267.818 C 241.433 267.944,241.600 267.677,241.600 267.224 C 241.600 266.771,241.780 266.400,242.000 266.400 C 242.618 266.400,242.473 265.713,241.800 265.455 C 241.362 265.287,241.189 265.519,241.160 266.313 M241.320 271.200 C 241.320 272.410,241.395 272.905,241.487 272.300 C 241.578 271.695,241.578 270.705,241.487 270.100 C 241.395 269.495,241.320 269.990,241.320 271.200 M241.492 276.829 C 241.599 277.238,241.937 277.782,242.243 278.036 C 242.549 278.290,242.800 278.735,242.800 279.025 C 242.800 279.315,242.992 279.671,243.227 279.817 C 243.483 279.975,243.603 279.784,243.527 279.340 C 243.380 278.481,248.543 277.983,249.340 278.780 C 249.855 279.295,255.200 279.344,255.200 278.833 C 255.200 278.632,254.975 278.375,254.700 278.264 C 254.309 278.105,254.316 277.980,254.733 277.687 C 255.079 277.443,253.262 277.234,249.533 277.089 C 246.380 276.966,243.237 276.689,242.548 276.474 C 241.430 276.125,241.317 276.163,241.492 276.829 M320.980 276.512 C 321.347 277.791,319.247 279.526,317.500 279.386 C 316.675 279.320,316.000 279.431,316.000 279.633 C 316.000 279.835,316.776 280.000,317.725 280.000 C 320.040 280.000,322.014 278.159,321.253 276.710 C 320.990 276.209,320.867 276.120,320.980 276.512 M322.259 277.104 C 322.156 277.272,322.325 277.756,322.635 278.181 C 323.173 278.916,323.200 278.901,323.200 277.876 C 323.200 276.863,322.675 276.432,322.259 277.104 M246.100 279.487 C 246.705 279.578,247.695 279.578,248.300 279.487 C 248.905 279.395,248.410 279.320,247.200 279.320 C 245.990 279.320,245.495 279.395,246.100 279.487 M307.759 279.667 C 307.645 279.850,308.193 280.000,308.976 280.000 C 309.759 280.000,310.400 279.850,310.400 279.667 C 310.400 279.483,309.852 279.333,309.182 279.333 C 308.513 279.333,307.872 279.483,307.759 279.667 M310.951 279.680 C 310.842 279.856,311.753 280.000,312.976 280.000 C 314.199 280.000,315.200 279.856,315.200 279.680 C 315.200 279.504,314.288 279.360,313.174 279.360 C 312.060 279.360,311.059 279.504,310.951 279.680 M304.478 280.628 L 303.557 281.095 304.478 281.342 C 304.985 281.478,308.550 281.552,312.400 281.506 L 319.400 281.424 313.627 281.300 C 310.002 281.223,307.646 281.004,307.294 280.712 C 306.544 280.090,305.596 280.062,304.478 280.628 M242.100 281.476 C 242.485 281.576,243.115 281.576,243.500 281.476 C 243.885 281.375,243.570 281.293,242.800 281.293 C 242.030 281.293,241.715 281.375,242.100 281.476 M249.100 281.495 C 250.255 281.576,252.145 281.576,253.300 281.495 C 254.455 281.414,253.510 281.348,251.200 281.348 C 248.890 281.348,247.945 281.414,249.100 281.495 M265.527 289.100 C 265.393 296.145,265.492 298.000,265.999 298.000 C 266.581 298.000,266.661 296.584,266.480 289.500 C 266.251 280.527,265.694 280.293,265.527 289.100 M262.093 288.400 C 262.093 289.170,262.175 289.485,262.276 289.100 C 262.376 288.715,262.376 288.085,262.276 287.700 C 262.175 287.315,262.093 287.630,262.093 288.400 M297.818 294.344 C 297.290 296.007,298.569 297.043,299.606 295.792 C 300.019 295.295,299.980 295.041,299.393 294.392 C 298.500 293.405,298.120 293.393,297.818 294.344 M286.000 295.151 C 286.000 296.730,288.013 297.186,288.570 295.733 C 288.921 294.820,288.481 294.400,287.176 294.400 C 286.292 294.400,286.000 294.587,286.000 295.151 M191.200 296.210 C 190.650 296.519,189.626 296.778,188.924 296.786 C 188.222 296.794,187.536 296.980,187.400 297.200 C 187.256 297.433,187.655 297.600,188.353 297.600 C 189.013 297.600,189.664 297.780,189.800 298.000 C 190.104 298.491,191.600 298.534,191.600 298.051 C 191.600 297.859,192.320 297.587,193.200 297.446 C 194.667 297.212,195.242 296.695,194.500 296.279 C 193.559 295.751,192.073 295.720,191.200 296.210 M180.078 296.941 C 180.147 297.426,180.489 297.800,180.865 297.800 C 181.231 297.800,181.906 298.233,182.365 298.761 C 183.021 299.516,183.200 299.580,183.200 299.061 C 183.200 298.698,183.380 298.400,183.600 298.400 C 184.165 298.400,184.097 297.377,183.500 296.891 C 182.374 295.973,179.945 296.009,180.078 296.941 M218.292 296.563 C 217.640 297.058,217.663 297.100,218.592 297.100 C 219.181 297.100,219.600 296.871,219.600 296.550 C 219.600 295.865,219.206 295.869,218.292 296.563 M281.600 296.800 C 281.600 297.020,281.870 297.200,282.200 297.200 C 282.530 297.200,282.800 297.020,282.800 296.800 C 282.800 296.580,282.530 296.400,282.200 296.400 C 281.870 296.400,281.600 296.580,281.600 296.800 M294.460 296.780 C 294.548 297.044,294.750 297.247,294.910 297.230 C 295.388 297.181,295.296 296.632,294.780 296.460 C 294.516 296.372,294.372 296.516,294.460 296.780 M200.227 297.959 C 198.847 298.499,202.180 299.771,203.866 299.348 C 205.341 298.978,205.026 298.000,203.433 298.000 C 202.681 298.000,201.826 297.923,201.533 297.828 C 201.240 297.733,200.652 297.792,200.227 297.959 M293.200 298.633 C 293.200 298.982,293.414 299.195,293.675 299.108 C 294.417 298.861,294.540 298.000,293.833 298.000 C 293.485 298.000,293.200 298.285,293.200 298.633 M284.137 299.420 C 283.905 300.024,285.386 302.000,286.070 302.000 C 286.454 302.000,286.511 300.353,286.157 299.433 C 285.845 298.620,284.447 298.611,284.137 299.420 M294.221 299.566 C 294.096 299.769,294.535 300.054,295.197 300.199 C 295.858 300.345,296.400 300.629,296.400 300.832 C 296.400 301.034,296.800 301.200,297.289 301.200 C 298.172 301.200,298.173 301.195,297.389 300.449 C 296.465 299.568,294.549 299.035,294.221 299.566 M261.200 300.600 C 261.200 301.104,261.451 301.467,261.800 301.467 C 262.149 301.467,262.400 301.104,262.400 300.600 C 262.400 300.096,262.149 299.733,261.800 299.733 C 261.451 299.733,261.200 300.096,261.200 300.600 M225.000 301.891 C 224.560 302.000,224.056 302.339,223.880 302.645 C 223.685 302.984,222.886 303.200,221.830 303.200 C 218.239 303.200,216.711 303.981,218.100 305.107 C 218.631 305.538,223.445 304.992,224.200 304.416 C 224.420 304.248,225.140 303.975,225.800 303.809 C 226.858 303.544,226.906 303.474,226.206 303.216 C 225.477 302.947,225.509 302.872,226.606 302.278 C 227.891 301.583,227.056 301.382,225.000 301.891 M256.400 302.000 C 256.400 302.220,256.760 302.427,257.200 302.460 C 257.640 302.493,258.210 302.538,258.467 302.560 C 258.723 302.582,259.008 302.375,259.100 302.100 C 259.213 301.762,258.802 301.600,257.833 301.600 C 257.045 301.600,256.400 301.780,256.400 302.000 M265.600 302.371 C 265.600 302.943,265.857 303.200,266.429 303.200 C 267.002 303.200,267.217 302.985,267.125 302.505 C 266.924 301.462,265.600 301.346,265.600 302.371 M291.300 301.876 C 291.685 301.976,292.315 301.976,292.700 301.876 C 293.085 301.775,292.770 301.693,292.000 301.693 C 291.230 301.693,290.915 301.775,291.300 301.876 M296.300 301.882 C 296.795 301.978,297.605 301.978,298.100 301.882 C 298.595 301.787,298.190 301.709,297.200 301.709 C 296.210 301.709,295.805 301.787,296.300 301.882 M304.800 302.400 C 304.800 302.840,305.064 303.200,305.386 303.200 C 305.708 303.200,306.165 302.840,306.400 302.400 C 306.776 301.698,306.704 301.600,305.814 301.600 C 305.067 301.600,304.800 301.810,304.800 302.400 M320.000 301.957 C 321.262 302.657,323.494 302.858,322.624 302.193 C 322.196 301.867,321.296 301.605,320.624 301.612 C 319.755 301.621,319.574 301.721,320.000 301.957 M200.800 304.953 C 200.800 307.075,201.677 308.094,202.869 307.357 C 203.744 306.817,203.200 305.311,202.200 305.502 C 201.023 305.727,200.880 305.036,201.823 303.689 C 202.406 302.857,202.393 302.800,201.623 302.800 C 200.894 302.800,200.800 303.047,200.800 304.953 M262.600 305.504 C 261.850 305.899,260.318 306.149,258.515 306.168 C 256.099 306.195,255.718 306.287,256.168 306.738 C 256.605 307.177,257.128 307.189,258.983 306.804 C 260.990 306.387,261.350 306.412,262.015 307.014 C 262.881 307.798,263.762 307.592,264.365 306.465 C 265.023 305.236,264.080 304.723,262.600 305.504 M306.537 306.100 C 306.436 306.265,306.408 306.403,306.476 306.408 C 309.600 306.598,313.385 306.594,316.200 306.398 C 319.574 306.163,319.389 306.136,313.261 305.973 C 309.665 305.878,306.639 305.935,306.537 306.100 M323.293 306.800 C 323.293 307.570,323.375 307.885,323.476 307.500 C 323.576 307.115,323.576 306.485,323.476 306.100 C 323.375 305.715,323.293 306.030,323.293 306.800 M200.991 319.942 C 200.685 320.249,201.235 320.800,201.847 320.800 C 202.177 320.800,202.345 320.635,202.221 320.434 C 202.097 320.233,202.221 319.981,202.498 319.875 C 202.774 319.769,202.586 319.702,202.080 319.727 C 201.574 319.753,201.084 319.849,200.991 319.942 " stroke="none" fill="#fbdc04" fill-rule="evenodd"></path><path id="path3" d="M75.600 55.645 C 75.600 56.352,75.750 56.441,76.500 56.178 C 78.891 55.339,177.949 55.549,178.795 56.395 C 179.555 57.155,179.600 57.712,179.600 66.400 C 179.600 72.368,179.743 75.600,180.007 75.600 C 180.275 75.600,180.377 72.084,180.307 65.300 L 180.200 55.000 127.900 54.899 L 75.600 54.797 75.600 55.645 M54.800 76.133 C 54.800 76.964,55.273 77.237,55.863 76.748 C 56.639 76.104,56.523 75.600,55.600 75.600 C 55.160 75.600,54.800 75.840,54.800 76.133 M64.000 75.992 C 64.000 76.922,69.994 77.025,70.301 76.100 C 70.424 75.728,69.642 75.600,67.233 75.600 C 65.386 75.600,64.000 75.768,64.000 75.992 M184.102 76.100 C 184.227 76.472,186.002 76.608,191.035 76.630 C 194.756 76.647,198.385 76.797,199.100 76.962 C 200.246 77.228,200.400 77.165,200.400 76.432 C 200.400 75.616,200.238 75.600,192.167 75.600 C 185.757 75.600,183.971 75.711,184.102 76.100 M97.206 127.500 C 97.202 160.371,97.335 177.200,97.600 177.200 C 98.142 177.200,98.142 79.238,97.600 78.400 C 97.349 78.011,97.210 95.265,97.206 127.500 M199.600 97.776 C 199.600 101.798,200.225 101.966,200.344 97.977 C 200.403 95.970,200.284 94.800,200.019 94.800 C 199.765 94.800,199.600 95.969,199.600 97.776 M199.600 127.776 C 199.600 144.459,199.738 153.200,200.000 153.200 C 200.262 153.200,200.400 144.541,200.400 128.024 C 200.400 111.671,200.260 102.761,200.000 102.600 C 199.735 102.436,199.600 110.929,199.600 127.776 M116.852 137.883 C 116.260 138.516,116.210 159.600,116.800 159.600 C 117.057 159.600,117.200 155.808,117.200 149.024 C 117.200 142.156,117.345 138.357,117.615 138.191 C 117.843 138.050,126.738 137.955,137.383 137.981 C 150.490 138.012,156.820 137.891,156.995 137.608 C 157.392 136.965,117.454 137.239,116.852 137.883 M199.600 158.400 C 199.600 159.130,199.766 159.545,200.000 159.400 C 200.220 159.264,200.400 158.814,200.400 158.400 C 200.400 157.986,200.220 157.536,200.000 157.400 C 199.766 157.255,199.600 157.670,199.600 158.400 M179.543 160.500 C 179.212 161.657,179.654 178.400,180.015 178.400 C 180.250 178.400,180.400 174.825,180.400 169.200 C 180.400 161.273,180.124 158.467,179.543 160.500 M137.200 164.000 C 137.200 166.133,137.363 167.600,137.600 167.600 C 137.837 167.600,138.000 166.133,138.000 164.000 C 138.000 161.867,137.837 160.400,137.600 160.400 C 137.363 160.400,137.200 161.867,137.200 164.000 M137.200 174.800 C 137.200 176.400,137.371 177.600,137.600 177.600 C 137.829 177.600,138.000 176.400,138.000 174.800 C 138.000 173.200,137.829 172.000,137.600 172.000 C 137.371 172.000,137.200 173.200,137.200 174.800 M199.600 177.243 C 199.600 177.937,199.773 178.043,200.574 177.842 C 201.109 177.708,224.509 177.595,252.574 177.591 C 297.346 177.584,303.600 177.511,303.600 176.992 C 303.600 176.472,297.235 176.400,251.600 176.400 L 199.600 176.400 199.600 177.243 M54.800 179.767 C 54.800 180.115,55.085 180.400,55.433 180.400 C 56.140 180.400,56.017 179.539,55.275 179.292 C 55.014 179.205,54.800 179.418,54.800 179.767 M57.600 180.000 C 57.600 180.220,57.960 180.400,58.400 180.400 C 58.840 180.400,59.200 180.220,59.200 180.000 C 59.200 179.780,58.840 179.600,58.400 179.600 C 57.960 179.600,57.600 179.780,57.600 180.000 M158.667 181.067 C 158.520 181.213,158.400 185.347,158.400 190.253 C 158.400 198.743,158.362 199.192,157.605 199.597 C 156.754 200.053,78.203 200.196,76.500 199.745 C 75.775 199.553,75.600 199.671,75.600 200.353 L 75.600 201.200 117.600 201.200 L 159.600 201.200 159.600 191.000 C 159.600 181.688,159.466 180.267,158.667 181.067 M305.700 197.700 C 305.792 197.975,306.197 198.200,306.600 198.200 C 307.003 198.200,307.408 197.975,307.500 197.700 C 307.606 197.383,307.276 197.200,306.600 197.200 C 305.924 197.200,305.594 197.383,305.700 197.700 M309.810 197.617 C 310.476 198.694,324.401 198.951,324.400 197.886 C 324.400 197.224,323.855 197.175,316.996 197.218 C 312.845 197.244,309.688 197.419,309.810 197.617 M222.800 198.400 C 222.800 198.620,223.441 198.800,224.224 198.800 C 225.071 198.800,225.547 198.638,225.400 198.400 C 225.264 198.180,224.623 198.000,223.976 198.000 C 223.329 198.000,222.800 198.180,222.800 198.400 M240.667 259.067 C 240.250 259.484,240.354 263.600,240.782 263.600 C 240.992 263.600,241.276 262.925,241.413 262.100 C 241.550 261.275,241.733 260.375,241.819 260.100 C 241.941 259.709,246.252 259.600,261.611 259.600 C 274.600 259.600,281.164 259.465,281.000 259.200 C 280.722 258.750,241.114 258.619,240.667 259.067 M240.400 279.514 C 240.400 280.939,240.525 281.200,241.208 281.200 C 242.130 281.200,241.973 279.503,240.950 278.414 C 240.478 277.911,240.400 278.066,240.400 279.514 M178.800 301.000 C 178.800 301.733,179.013 302.000,179.600 302.000 C 180.526 302.000,180.586 301.679,179.843 300.700 C 179.110 299.734,178.800 299.823,178.800 301.000 M222.800 300.800 C 222.800 301.020,223.239 301.200,223.776 301.200 C 224.313 301.200,224.864 301.020,225.000 300.800 C 225.144 300.567,224.737 300.400,224.024 300.400 C 223.351 300.400,222.800 300.580,222.800 300.800 M322.626 300.758 C 322.504 300.955,322.688 301.225,323.035 301.358 C 324.034 301.741,324.400 301.645,324.400 301.000 C 324.400 300.356,322.993 300.164,322.626 300.758 M282.707 311.900 L 282.600 321.400 242.000 321.600 C 219.670 321.710,201.229 321.665,201.020 321.500 C 200.315 320.943,199.600 321.195,199.600 322.000 C 199.600 322.982,282.142 323.298,283.120 322.320 C 283.730 321.710,283.815 302.400,283.207 302.400 C 282.964 302.400,282.774 306.023,282.707 311.900 M302.229 303.426 C 301.765 305.276,302.020 321.243,302.527 322.054 C 302.962 322.752,303.684 322.800,313.696 322.800 L 324.400 322.800 324.400 321.800 C 324.400 320.792,323.410 320.369,323.116 321.251 C 323.011 321.568,319.956 321.723,312.883 321.773 L 302.800 321.843 302.738 314.821 C 302.703 310.960,302.713 306.585,302.760 305.100 C 302.849 302.275,302.664 301.693,302.229 303.426 " stroke="none" fill="#f0d840" fill-rule="evenodd"></path><path id="path4" d="M78.200 56.329 C 77.760 56.411,77.274 56.595,77.120 56.739 C 76.966 56.882,99.720 56.954,127.684 56.897 C 155.648 56.840,178.405 56.672,178.256 56.523 C 177.980 56.246,79.664 56.056,78.200 56.329 M178.400 66.244 C 178.400 76.868,179.148 79.195,181.732 76.611 C 182.250 76.093,182.442 76.118,183.337 76.822 C 184.329 77.602,199.782 78.049,199.009 77.275 C 198.874 77.140,195.556 77.080,191.637 77.142 C 185.251 77.242,184.437 77.180,183.800 76.543 C 182.867 75.610,181.803 75.474,181.193 76.209 C 179.359 78.418,178.752 75.736,178.843 65.837 C 178.885 61.299,178.802 57.469,178.660 57.326 C 178.517 57.183,178.400 61.197,178.400 66.244 M75.900 59.865 C 76.175 59.976,76.400 60.487,76.400 61.000 C 76.400 61.513,76.175 62.024,75.900 62.135 C 75.601 62.256,75.682 62.350,76.100 62.368 C 76.639 62.393,76.800 62.079,76.800 61.000 C 76.800 59.921,76.639 59.607,76.100 59.632 C 75.682 59.650,75.601 59.744,75.900 59.865 M75.600 65.800 C 75.600 66.350,75.761 66.800,75.957 66.800 C 76.424 66.800,76.867 65.632,76.578 65.164 C 76.142 64.459,75.600 64.812,75.600 65.800 M75.600 71.200 C 75.600 71.716,75.803 71.999,76.100 71.900 C 76.375 71.808,76.600 71.493,76.600 71.200 C 76.600 70.907,76.375 70.592,76.100 70.500 C 75.803 70.401,75.600 70.684,75.600 71.200 M60.133 76.256 C 60.756 76.588,61.521 76.762,61.833 76.643 C 62.931 76.221,62.381 75.769,60.700 75.711 L 59.000 75.651 60.133 76.256 M63.200 75.849 C 63.200 76.983,64.699 77.600,67.451 77.600 C 70.121 77.600,71.216 77.195,71.188 76.220 C 71.181 75.989,70.992 76.115,70.768 76.500 C 70.094 77.658,64.662 77.510,63.823 76.311 C 63.480 75.822,63.200 75.614,63.200 75.849 M73.249 76.259 C 73.793 76.915,75.259 76.837,75.489 76.140 C 75.584 75.851,75.107 75.680,74.204 75.680 C 72.996 75.680,72.845 75.772,73.249 76.259 M97.467 76.267 C 97.039 76.695,97.160 77.672,97.607 77.396 C 97.830 77.258,97.919 76.993,97.804 76.807 C 97.689 76.621,97.821 76.377,98.098 76.266 C 98.375 76.154,98.406 76.049,98.167 76.032 C 97.928 76.014,97.613 76.120,97.467 76.267 M156.306 76.265 C 156.804 76.371,157.109 76.624,156.982 76.829 C 156.856 77.033,157.048 77.200,157.410 77.200 C 158.570 77.200,157.782 76.202,156.569 76.137 C 155.742 76.092,155.665 76.129,156.306 76.265 M55.889 77.502 C 55.201 78.262,54.621 177.155,55.301 177.834 C 55.465 177.999,55.600 155.612,55.600 128.087 C 55.600 80.930,55.640 78.017,56.297 77.650 C 56.680 77.435,56.889 77.155,56.761 77.028 C 56.633 76.900,56.241 77.113,55.889 77.502 M158.000 78.024 C 158.000 78.257,158.173 78.340,158.385 78.209 C 158.597 78.079,158.940 78.563,159.149 79.286 C 159.357 80.009,159.544 80.273,159.564 79.874 C 159.584 79.474,159.414 78.799,159.186 78.374 C 158.742 77.545,158.000 77.326,158.000 78.024 M96.423 79.177 C 95.953 79.475,95.934 79.737,96.320 80.584 C 96.677 81.368,96.789 92.876,96.771 127.253 C 96.759 152.349,96.850 172.983,96.974 173.107 C 97.098 173.232,97.200 152.063,97.200 126.067 C 97.200 100.070,97.155 78.803,97.100 78.806 C 97.045 78.809,96.740 78.977,96.423 79.177 M198.893 86.000 C 198.893 86.770,198.975 87.085,199.076 86.700 C 199.176 86.315,199.176 85.685,199.076 85.300 C 198.975 84.915,198.893 85.230,198.893 86.000 M199.311 90.200 C 199.321 91.740,199.404 92.371,199.497 91.602 C 199.589 90.832,199.856 89.973,200.090 89.692 C 200.323 89.411,200.398 89.065,200.257 88.924 C 200.116 88.782,199.979 88.922,199.953 89.233 C 199.927 89.545,199.768 89.260,199.600 88.600 C 199.377 87.724,199.299 88.156,199.311 90.200 M198.928 96.800 C 198.928 98.230,199.001 98.815,199.089 98.100 C 199.178 97.385,199.178 96.215,199.089 95.500 C 199.001 94.785,198.928 95.370,198.928 96.800 M158.928 130.400 C 158.928 131.830,159.001 132.415,159.089 131.700 C 159.178 130.985,159.178 129.815,159.089 129.100 C 159.001 128.385,158.928 128.970,158.928 130.400 M118.080 138.480 C 117.324 139.236,117.521 139.794,118.300 139.103 C 118.685 138.762,119.360 138.395,119.800 138.288 C 120.450 138.129,120.408 138.084,119.580 138.046 C 119.019 138.021,118.344 138.216,118.080 138.480 M122.500 138.276 C 122.885 138.376,123.200 138.795,123.200 139.206 C 123.200 140.405,123.967 140.540,124.394 139.416 L 124.787 138.383 141.243 138.409 C 150.294 138.423,157.797 138.337,157.916 138.217 C 158.036 138.098,149.958 138.021,139.967 138.046 C 129.975 138.072,122.115 138.175,122.500 138.276 M117.293 156.000 C 117.293 156.770,117.375 157.085,117.476 156.700 C 117.576 156.315,117.576 155.685,117.476 155.300 C 117.375 154.915,117.293 155.230,117.293 156.000 M194.290 156.243 C 194.131 156.403,194.000 156.857,194.000 157.253 C 194.000 158.523,185.684 159.270,182.600 158.276 C 181.475 157.914,180.438 158.598,181.103 159.263 C 181.480 159.640,181.600 159.644,181.600 159.280 C 181.600 159.016,182.095 158.803,182.700 158.806 C 183.557 158.811,183.668 158.898,183.200 159.200 C 182.791 159.464,183.872 159.588,186.600 159.588 C 189.328 159.588,190.409 159.464,190.000 159.200 C 189.534 158.899,189.651 158.811,190.524 158.806 C 191.172 158.803,191.543 158.969,191.400 159.200 C 190.960 159.912,193.290 159.628,193.856 158.900 C 194.371 158.237,194.432 158.241,195.000 158.976 C 195.418 159.517,195.591 159.578,195.570 159.176 C 195.512 158.089,194.580 155.953,194.290 156.243 M198.800 157.106 C 198.800 157.671,198.507 157.986,197.900 158.072 C 196.744 158.236,196.726 159.361,197.877 159.525 C 198.750 159.649,199.711 157.178,199.048 156.515 C 198.912 156.378,198.800 156.644,198.800 157.106 M129.398 157.792 C 128.949 158.459,123.269 158.804,121.700 158.259 C 121.031 158.026,120.800 158.098,120.800 158.540 C 120.800 158.866,120.575 159.224,120.300 159.335 C 120.025 159.446,120.295 159.551,120.900 159.568 C 121.505 159.586,122.000 159.420,122.000 159.200 C 122.000 158.980,122.270 158.800,122.600 158.800 C 122.930 158.800,123.200 158.980,123.200 159.200 C 123.200 159.686,124.679 159.739,124.867 159.260 C 125.107 158.646,131.590 158.309,131.816 158.898 C 131.950 159.246,132.742 159.398,134.221 159.362 C 136.761 159.299,137.742 158.800,135.326 158.800 C 133.513 158.800,131.200 158.106,131.200 157.561 C 131.200 156.974,129.830 157.149,129.398 157.792 M117.606 158.276 C 117.603 158.758,117.780 159.264,118.000 159.400 C 118.509 159.715,118.509 158.788,118.000 158.000 C 117.685 157.512,117.611 157.564,117.606 158.276 M138.380 161.310 C 138.575 162.958,138.583 162.967,138.719 161.649 C 138.796 160.906,138.706 160.146,138.520 159.960 C 138.333 159.773,138.271 160.381,138.380 161.310 M178.667 159.867 C 178.058 160.475,178.371 177.878,179.000 178.400 C 179.330 178.674,179.600 179.146,179.600 179.449 C 179.600 179.752,179.870 180.000,180.200 180.000 C 180.998 180.000,180.968 179.899,179.800 178.638 L 178.800 177.559 178.800 169.059 C 178.800 162.982,178.937 160.423,179.280 160.080 C 179.567 159.793,179.594 159.600,179.347 159.600 C 179.119 159.600,178.813 159.720,178.667 159.867 M138.114 169.800 C 138.117 170.900,138.195 171.303,138.287 170.695 C 138.379 170.086,138.377 169.186,138.282 168.695 C 138.187 168.203,138.111 168.700,138.114 169.800 M96.480 174.480 C 95.823 175.137,95.878 176.200,96.600 176.800 C 97.117 177.229,97.200 177.069,97.200 175.649 C 97.200 173.832,97.173 173.787,96.480 174.480 M200.700 178.130 C 200.095 178.363,199.600 178.777,199.600 179.049 C 199.600 179.322,199.195 179.622,198.700 179.718 C 197.919 179.868,197.943 179.898,198.886 179.946 C 199.600 179.981,200.118 179.726,200.400 179.200 C 200.722 178.598,201.238 178.400,202.481 178.400 C 204.270 178.400,204.380 178.230,202.800 177.909 C 202.250 177.797,201.305 177.897,200.700 178.130 M251.200 178.000 L 204.600 178.205 251.450 178.303 C 277.218 178.356,298.818 178.467,299.450 178.548 C 300.082 178.630,300.330 178.612,300.000 178.510 C 299.670 178.407,299.229 178.160,299.020 177.961 C 298.811 177.763,298.451 177.644,298.220 177.697 C 297.989 177.751,276.830 177.887,251.200 178.000 M137.717 178.700 C 137.575 179.085,137.265 179.549,137.029 179.730 C 136.753 179.943,136.800 180.007,137.162 179.910 C 137.682 179.770,138.621 178.000,138.175 178.000 C 138.065 178.000,137.859 178.315,137.717 178.700 M302.399 178.551 C 302.949 178.872,303.474 179.059,303.566 178.967 C 303.814 178.719,303.514 178.530,302.400 178.233 L 301.400 177.967 302.399 178.551 M57.778 178.835 C 57.631 179.074,57.170 179.181,56.754 179.072 C 56.339 178.964,56.103 179.043,56.231 179.250 C 56.358 179.456,57.059 179.513,57.789 179.376 C 58.519 179.239,59.494 179.329,59.958 179.577 C 60.421 179.825,60.800 179.936,60.800 179.824 C 60.800 179.134,58.133 178.261,57.778 178.835 M159.534 179.069 C 158.623 179.311,158.281 180.314,159.132 180.250 C 159.499 180.223,159.930 180.020,160.088 179.800 C 160.275 179.540,160.660 179.576,161.188 179.903 C 161.636 180.181,162.000 180.232,162.000 180.017 C 162.000 179.672,160.650 178.727,160.326 178.846 C 160.257 178.872,159.900 178.972,159.534 179.069 M61.600 179.607 C 61.600 179.782,61.972 179.828,62.426 179.709 C 62.881 179.590,63.668 179.715,64.176 179.987 C 64.795 180.318,65.348 180.357,65.850 180.104 C 66.263 179.897,67.816 179.838,69.303 179.973 C 71.073 180.134,71.959 180.077,71.870 179.809 C 71.708 179.325,61.600 179.126,61.600 179.607 M73.200 179.800 C 72.856 180.215,72.841 180.400,73.151 180.400 C 73.398 180.400,73.600 180.222,73.600 180.005 C 73.600 179.787,74.005 179.652,74.499 179.705 C 75.548 179.816,76.492 181.232,75.825 181.694 C 75.571 181.869,75.682 181.990,76.100 181.994 C 76.885 182.001,77.008 181.136,76.386 179.974 C 75.885 179.037,73.922 178.930,73.200 179.800 M164.317 179.900 C 163.787 180.538,164.186 180.540,165.205 179.904 C 165.815 179.523,166.174 179.516,166.746 179.873 C 167.468 180.324,172.035 180.289,175.176 179.809 C 176.048 179.675,176.668 179.782,176.870 180.099 C 177.106 180.471,177.189 180.441,177.194 179.980 C 177.202 179.155,164.998 179.079,164.317 179.900 M112.500 180.297 C 113.985 180.374,116.415 180.374,117.900 180.297 C 119.385 180.220,118.170 180.157,115.200 180.157 C 112.230 180.157,111.015 180.220,112.500 180.297 M123.300 180.291 C 124.125 180.378,125.475 180.378,126.300 180.291 C 127.125 180.205,126.450 180.134,124.800 180.134 C 123.150 180.134,122.475 180.205,123.300 180.291 M178.800 180.724 C 178.800 180.939,179.085 181.224,179.433 181.357 C 179.823 181.507,180.006 181.418,179.908 181.125 C 179.709 180.527,178.800 180.198,178.800 180.724 M157.777 181.317 C 157.461 182.140,157.370 199.200,157.682 199.200 C 157.836 199.200,157.961 195.240,157.957 190.401 C 157.954 185.561,158.063 181.421,158.200 181.201 C 158.336 180.980,158.341 180.800,158.211 180.800 C 158.081 180.800,157.886 181.033,157.777 181.317 M179.772 192.000 C 179.772 197.170,179.829 199.285,179.899 196.700 C 179.968 194.115,179.968 189.885,179.899 187.300 C 179.829 184.715,179.772 186.830,179.772 192.000 M75.600 185.400 C 75.600 186.076,75.783 186.406,76.100 186.300 C 76.375 186.208,76.600 185.803,76.600 185.400 C 76.600 184.997,76.375 184.592,76.100 184.500 C 75.783 184.394,75.600 184.724,75.600 185.400 M75.600 191.933 C 75.600 192.153,75.825 192.425,76.100 192.536 C 76.478 192.690,76.457 192.839,76.012 193.148 C 75.688 193.373,75.556 193.689,75.718 193.852 C 76.164 194.297,76.894 193.383,76.738 192.576 C 76.591 191.820,75.600 191.260,75.600 191.933 M221.463 197.253 C 220.540 197.789,219.585 200.016,219.646 201.487 C 219.679 202.275,219.742 202.366,219.862 201.800 C 219.955 201.360,220.119 200.588,220.227 200.084 C 220.335 199.580,220.598 199.275,220.812 199.407 C 221.025 199.539,221.200 199.272,221.200 198.814 C 221.200 197.742,222.572 197.216,224.845 197.416 C 226.338 197.548,226.421 197.520,225.400 197.233 C 223.690 196.751,222.314 196.758,221.463 197.253 M242.500 197.500 C 249.485 197.561,260.915 197.561,267.900 197.500 C 274.885 197.439,269.170 197.388,255.200 197.388 C 241.230 197.388,235.515 197.439,242.500 197.500 M303.469 197.711 C 303.585 197.899,303.771 197.962,303.883 197.851 C 303.994 197.739,304.438 197.977,304.869 198.378 C 305.572 199.033,306.523 199.114,314.084 199.167 C 318.722 199.199,322.715 199.336,322.958 199.471 C 323.256 199.637,323.270 199.579,323.000 199.293 C 322.754 199.033,319.352 198.801,314.153 198.691 C 305.948 198.518,304.539 198.346,305.015 197.575 C 305.141 197.372,304.797 197.242,304.251 197.288 C 303.705 197.333,303.353 197.524,303.469 197.711 M75.874 198.260 C 75.730 198.404,76.074 198.761,76.638 199.053 C 77.672 199.590,156.189 199.945,156.718 199.415 C 156.837 199.297,139.053 199.200,117.198 199.200 C 82.414 199.200,77.380 199.125,76.799 198.599 C 76.434 198.269,76.017 198.116,75.874 198.260 M219.794 251.200 C 219.794 277.930,219.842 288.865,219.900 275.500 C 219.958 262.135,219.958 240.265,219.900 226.900 C 219.842 213.535,219.794 224.470,219.794 251.200 M323.041 203.836 C 322.907 204.186,322.883 204.611,322.989 204.782 C 323.094 204.952,323.198 221.575,323.221 241.721 C 323.252 269.558,323.375 278.307,323.731 278.168 C 324.304 277.944,324.555 274.000,323.997 274.000 C 323.778 274.000,323.600 273.280,323.600 272.400 C 323.600 271.520,323.780 270.800,324.000 270.800 C 324.220 270.800,324.400 270.080,324.400 269.200 C 324.400 268.320,324.220 267.600,324.000 267.600 C 323.739 267.600,323.600 261.200,323.600 249.200 C 323.600 237.200,323.739 230.800,324.000 230.800 C 324.258 230.800,324.400 226.267,324.400 218.000 C 324.400 209.733,324.258 205.200,324.000 205.200 C 323.421 205.200,323.507 203.704,324.100 203.465 C 324.416 203.338,324.358 203.252,323.943 203.232 C 323.581 203.214,323.176 203.486,323.041 203.836 M282.278 255.856 C 281.806 256.327,281.971 258.322,282.500 258.536 C 284.023 259.154,281.201 259.596,275.200 259.679 L 268.600 259.771 275.400 259.985 C 282.551 260.211,283.200 260.084,283.200 258.462 C 283.200 258.025,283.425 257.583,283.700 257.480 C 284.054 257.348,283.959 257.043,283.378 256.436 C 282.926 255.964,282.431 255.703,282.278 255.856 M242.499 260.100 C 242.280 260.375,241.978 261.453,241.827 262.495 C 241.676 263.538,241.292 264.651,240.973 264.970 C 240.655 265.288,240.550 265.646,240.741 265.764 C 241.171 266.029,242.262 263.517,242.590 261.510 L 242.833 260.019 249.516 259.899 L 256.200 259.779 249.549 259.690 C 244.617 259.623,242.795 259.729,242.499 260.100 M240.509 270.800 C 240.509 271.790,240.587 272.195,240.682 271.700 C 240.778 271.205,240.778 270.395,240.682 269.900 C 240.587 269.405,240.509 269.810,240.509 270.800 M240.400 275.258 C 240.400 275.364,240.760 276.195,241.200 277.106 C 241.640 278.016,242.000 278.940,242.000 279.158 C 242.000 279.376,242.373 279.816,242.828 280.135 C 243.431 280.557,243.513 280.772,243.128 280.926 C 242.838 281.042,246.461 281.151,251.180 281.168 C 258.003 281.194,259.659 281.099,259.264 280.704 C 258.919 280.359,256.390 280.147,250.928 280.004 L 243.088 279.800 242.019 277.708 C 241.018 275.750,240.400 274.814,240.400 275.258 M322.460 279.300 C 322.106 279.654,319.749 279.840,314.363 279.938 C 307.891 280.055,306.834 280.159,307.231 280.638 C 307.765 281.281,321.427 281.490,321.030 280.849 C 320.911 280.655,321.350 280.390,322.006 280.259 C 322.705 280.119,323.200 279.767,323.200 279.410 C 323.200 278.670,323.104 278.656,322.460 279.300 M261.275 282.657 C 261.245 283.458,261.334 283.999,261.473 283.860 C 261.612 283.721,262.002 283.830,262.338 284.103 C 262.854 284.522,262.907 284.485,262.675 283.867 C 262.524 283.464,262.400 282.699,262.400 282.167 C 262.400 280.554,261.337 281.017,261.275 282.657 M262.000 285.224 C 262.000 285.457,261.848 285.553,261.661 285.438 C 261.475 285.323,261.285 288.445,261.238 292.376 C 261.186 296.757,261.306 299.618,261.549 299.768 C 262.417 300.305,262.485 299.389,262.334 289.300 C 262.297 286.825,262.207 284.800,262.133 284.800 C 262.060 284.800,262.000 284.991,262.000 285.224 M180.006 298.676 C 180.015 300.291,180.388 300.667,182.300 300.986 C 183.235 301.142,184.000 301.434,184.000 301.635 C 184.000 302.135,191.890 302.101,192.200 301.600 C 192.540 301.050,194.246 301.097,195.183 301.682 C 195.816 302.078,196.097 302.036,196.745 301.450 C 197.939 300.369,199.303 300.741,199.493 302.200 C 199.579 302.860,199.818 303.571,200.025 303.780 C 200.527 304.289,200.506 306.800,200.000 306.800 C 199.750 306.800,199.600 309.212,199.600 313.236 C 199.600 320.318,199.921 321.224,202.400 321.139 C 203.294 321.109,203.272 321.078,202.200 320.849 L 201.000 320.592 200.920 311.013 C 200.841 301.533,200.831 301.427,199.920 300.726 C 198.834 299.890,197.948 299.812,197.267 300.493 C 196.995 300.765,195.564 301.035,194.087 301.093 C 192.609 301.152,190.320 301.253,189.000 301.317 C 184.536 301.537,180.299 300.271,180.676 298.830 C 180.783 298.423,180.674 297.969,180.435 297.822 C 180.161 297.652,180.002 297.968,180.006 298.676 M302.800 298.990 C 302.800 299.695,300.809 300.798,299.520 300.806 C 299.014 300.809,298.330 301.004,298.000 301.238 C 297.384 301.676,299.491 301.505,301.500 300.954 C 302.195 300.763,302.407 300.877,302.432 301.453 C 302.449 301.864,302.551 301.985,302.658 301.722 C 302.792 301.391,303.491 301.320,304.922 301.489 C 306.958 301.730,306.979 301.722,306.228 300.971 C 305.692 300.434,305.415 300.355,305.299 300.704 C 305.208 300.977,304.922 301.200,304.663 301.200 C 303.984 301.200,303.172 299.739,303.449 299.016 C 303.579 298.677,303.486 298.400,303.243 298.400 C 302.999 298.400,302.800 298.665,302.800 298.990 M220.102 300.507 C 220.542 301.825,222.329 302.530,224.078 302.075 C 225.141 301.799,225.341 301.678,224.600 301.758 C 223.078 301.923,221.374 301.458,221.486 300.908 C 221.533 300.676,221.208 300.391,220.763 300.274 C 220.272 300.146,220.013 300.238,220.102 300.507 M282.968 300.984 C 282.833 301.525,282.469 302.177,282.161 302.433 C 281.515 302.969,281.409 304.000,282.000 304.000 C 282.220 304.000,282.400 303.650,282.400 303.223 C 282.400 302.785,282.918 302.139,283.585 301.745 C 284.489 301.211,284.667 300.922,284.336 300.523 C 283.685 299.739,283.243 299.888,282.968 300.984 M286.700 300.626 C 286.140 301.199,286.394 301.643,287.066 301.267 C 287.464 301.044,288.229 301.036,288.964 301.247 C 291.267 301.908,296.344 301.684,295.400 300.964 C 294.897 300.580,294.229 300.448,293.600 300.610 C 292.272 300.950,291.389 300.950,289.000 300.607 C 287.900 300.449,286.865 300.457,286.700 300.626 M260.800 301.133 C 260.800 301.390,260.395 301.621,259.900 301.646 C 259.159 301.685,259.131 301.727,259.742 301.884 C 260.540 302.089,261.525 301.391,261.073 300.940 C 260.923 300.790,260.800 300.877,260.800 301.133 M234.700 301.899 C 238.715 301.965,245.285 301.965,249.300 301.899 C 253.315 301.834,250.030 301.781,242.000 301.781 C 233.970 301.781,230.685 301.834,234.700 301.899 M315.300 301.891 C 316.125 301.978,317.475 301.978,318.300 301.891 C 319.125 301.805,318.450 301.734,316.800 301.734 C 315.150 301.734,314.475 301.805,315.300 301.891 M322.586 302.140 C 323.145 302.549,323.264 302.982,323.075 303.924 C 322.938 304.609,322.972 305.259,323.150 305.369 C 323.660 305.684,323.198 319.717,322.659 320.286 C 322.149 320.825,303.995 321.091,303.155 320.572 C 302.875 320.399,302.767 320.501,302.879 320.836 C 303.191 321.773,322.431 321.461,323.086 320.508 C 323.354 320.119,323.759 319.583,323.986 319.317 C 324.679 318.508,324.528 306.071,323.817 305.360 C 323.496 305.039,323.336 304.512,323.460 304.188 C 323.832 303.220,323.240 301.600,322.516 301.600 C 321.925 301.600,321.933 301.663,322.586 302.140 M302.806 303.500 C 302.803 304.215,302.869 304.800,302.953 304.800 C 303.317 304.800,303.472 303.241,303.157 302.744 C 302.923 302.374,302.810 302.616,302.806 303.500 M282.509 306.000 C 282.509 306.990,282.587 307.395,282.682 306.900 C 282.778 306.405,282.778 305.595,282.682 305.100 C 282.587 304.605,282.509 305.010,282.509 306.000 M302.965 313.000 C 302.966 316.960,303.026 318.526,303.098 316.480 C 303.171 314.434,303.171 311.194,303.098 309.280 C 303.024 307.366,302.965 309.040,302.965 313.000 M282.501 318.200 C 282.505 319.080,282.587 319.393,282.683 318.895 C 282.779 318.398,282.775 317.678,282.675 317.295 C 282.575 316.913,282.496 317.320,282.501 318.200 M281.746 320.414 C 281.481 320.679,268.083 320.779,242.510 320.708 C 221.151 320.649,203.884 320.732,204.138 320.894 C 205.576 321.809,283.281 321.148,282.362 320.228 C 282.243 320.110,281.966 320.194,281.746 320.414 " stroke="none" fill="#f7d314" fill-rule="evenodd"></path></g></svg>